<?xml version="1.0" standalone="no"?>
<!DOCTYPE svg PUBLIC "-//W3C//DTD SVG 1.1//EN" "http://www.w3.org/Graphics/SVG/1.1/DTD/svg11.dtd" >
<svg xmlns="http://www.w3.org/2000/svg" xmlns:xlink="http://www.w3.org/1999/xlink" version="1.1">
<metadata>
Created by FontForge 20170731 at Sat Jul 16 07:28:27 1932
 By Aleksey,,,
Mike Font '98.  Redistribute Freely.  Superfunk.com
</metadata>
<defs>
<font id="Losers" horiz-adv-x="750" >
  <font-face 
    font-family="Mark"
    font-weight="400"
    font-stretch="normal"
    units-per-em="1000"
    panose-1="0 0 0 0 0 0 0 0 0 0"
    ascent="800"
    descent="-200"
    x-height="799"
    cap-height="800"
    bbox="13 -202 1126 803"
    underline-thickness="20"
    underline-position="-163"
    unicode-range="U+0020-00A0"
  />
<missing-glyph horiz-adv-x="803" 
d="M50 0v803h703v-803h-703zM703 50v703h-603v-703h603z" />
    <glyph glyph-name=".notdef" horiz-adv-x="803" 
d="M50 0v803h703v-803h-703zM703 50v703h-603v-703h603z" />
    <glyph glyph-name=".null" horiz-adv-x="0" 
 />
    <glyph glyph-name="nonmarkingreturn" horiz-adv-x="500" 
 />
    <glyph glyph-name="space" unicode=" " horiz-adv-x="500" 
 />
    <glyph glyph-name="A" unicode="A" horiz-adv-x="735" 
d="M362 791l-33 9q-38 0 -47 -23l-9 -56l-16 38q-7 23 -30 18l14 -10l-24 -23l-23 23q-18 -6 -34 -26q-13 -19 -22 -44l-9 13q-3 4 0 11q-19 -9 -46 -52l-1 -4l14 14l9 -14l3 -13q0 -9 -9 -18l-26 -26l-14 14l14 -14q-21 -27 -27 -65t-6 -91v-35l266 -9v177q7 19 20.5 34.5
t34.5 15.5l15 -3q17 -14 25.5 -37t8.5 -49l-2 -47l-2 -35l3 -33q-20 -12 -33 -22.5t-18 -20t-19 -60.5q-22 0 -22 22q0 24 -11 25q-11 -11 -83 -36q-56 -18 -56 -59v-16q3 -8 4 -11q-10 7 -10 26l1 28l-1 12l-88 -66q-16 -38 -27.5 -96t-11.5 -108q0 -58 11.5 -104.5
t36.5 -83.5l75 -42q44 -19 84 -19q7 0 18.5 1t23.5 4q15 7 31 13q23 10 39 19q41 20 56 57q0 -44 23 -60t64 -16l51 3l94 8q32 0 48 -5q-3 6 -5 22l6 37q6 26 6 39q0 15 -6.5 28t-23.5 23q19 26 28 69q4 21 6 43t2 51l-3 80l-2 50v16l2 13l-24 -32l-9 9l-2 11v9q0 18 5 29.5
t8 16.5q8 15 22 37l-10 -9q-11 -3 -23 9q14 15 18 42q12 73 15 79q0 50 -7 87t-25 73q-36 79 -113 111q-6 5 -17 8l-16 3q-8 0 -15.5 -5.5t-7.5 -19.5l-24 38q-3 -20 -8 -27q-2 -7 -15 -20l-19 23l19 24h-65l7 -8q7 -9 13 -11q8 0 12 19q27 -20 27 -57q0 -19 -8 -33t-28 -22
q-14 5 -14 24l1 22l-1 10l1 -17q0 -15 -6 -15l-18 9l-11 5l-6 -3l-2 -17l-25 44q-9 14 -10 26q0 13 11 24l24 -38v38h9zM250 721l-9 32zM488 753l-37 -42l37 33l4 -16q0 -13 -13 -42q-4 -10 -8 -23.5t-6 -21.5q11 8 26 35q11 24 30 35q11 -9 11 -20q0 -9 -8 -22l-7 -21
q0 -8 4 -16l33 112l-10 -9q-17 7 -14 18l-32 -18q-5 0 -10 9v9zM185 665v79h9v-79h-9zM227 665l-10 56zM376 295h10v80h-10v-80zM194 309l14 -93l19 37q8 -5 11 -14t3 -23q1 4 1 12q0 21 -7 43l-18 24l-9 -9q-10 5 -13 9t-1 14zM306 309l18 -39q0 -17 5 -40l-11 24
q-12 26 -14 44zM105 174l-9 9q-14 -6 -14 -24l1 -20l-1 -12q-10 8 -17 18q-5 10 -5 23q0 23 18 56l18 29l9 19v-98zM138 230l14 33l-23 -10zM395 263l-2 -15v-24l2 -52l3 -70q0 -41 -8.5 -75t-27.5 -54q-9 -3 -18 6l-15 13l-9 -10l1 18l-1 37l-1 45q0 60 13 102q18 55 63 79
zM152 -27l-2 -27q1 -15 11 -20l10 10l14 -42q-1 16 -7 16l-15 -3q-8 1 -11 10h-14v56h14zM105 -41l-9 -23q2 3 7 5q10 0 10 -40l2 2zM320 -50q11 -29 11 -52t-11 -51v11q0 12 -14 12l-9 -9q-13 -1 -13 14q0 16 11.5 39.5t24.5 35.5z" />
    <glyph glyph-name="B" unicode="B" horiz-adv-x="626" 
d="M277 800h-248q5 -20 8 -44.5t3 -52.5l-3 -69l-7 -114v-39q3 -15 5.5 -31t13.5 -47q-11 -61 -19 -146q0 -33 -2.5 -92t-2.5 -75l2 -157l2 -111l40 -6l44 -1h21h22q10 2 14 2l95 5q0 17 3 27t16 20l20 -20l8 8l47 -47q13 -4 29.5 -7t32.5 -3q39 0 75 15t63 42q24 58 33 138
q4 34 7 80.5t3 87.5q0 16 -1 54t-1 60l-5 185l-16 -20l-20 20l-8 23l-4 28q0 30 20 43q10 -3 14 -9t6 -23l-1 -21l1 -15q2 -5 8 -10q0 22 -3 37.5t-8 29.5q-10 31 -36 59l2 -23q0 -11 -10 -17q-9 7 -10 22l2 25l-3 -21l1 -21q0 -14 2 -21q0 -16 -6 -26t-26 -13q-8 9 -14 26
l-4 33q0 30 11 51q-12 10 -22.5 16t-18.5 6q-15 0 -32 -39q-13 -37 -28 -38q-13 0 -33 20l12 47q-24 -3 -31 -10t-9 -24l2 -29q0 -17 -9 -31q-12 5 -12 16v19l2 -25q0 -13 -10 -22q-10 28 -24 50q-9 12 -15 44q1 -4 -1 -8l-7 -7l-8 7l-1 27l-2 20q0 24 19 28q12 -5 12 -22
v-25v161zM60 792l-3 -11l-2 -27q0 -17 2 -22q3 -6 11.5 1.5t8.5 16.5q0 7 -7.5 20t-9.5 22zM96 792l39 -78zM135 792q9 -31 33 -71q24 -35 42 -43l-3 23q0 13 4 32l9 47q0 9 -2 12q-14 -10 -17 -44q0 -31 -11 -42l-8 17l-1 18l1 18l1 20l-1 13l-1 -12l1 -11q0 -10 -12 -16
l-11 26q-3 4 -24 13zM473 619l-20 -35l-15 27l-12 -39l19 20q10 0 10 -22l-2 2q9 6 15 16.5t6 20.5zM351 556v55l-8 -66zM332 490l11 -527q-19 -8 -25 -13q-6 -8 -6 -19q2 -6 2 -16l1 -18l-3 -20q-16 36 -22 80.5t-6 97.5l1 66l1 66l-2 60l-7 54q-9 -5 -11 -13l-1 -13v-16
v-13q-8 8 -8 24l1 28l-1 11q-2 -6 8 -16q12 12 15.5 27.5t3.5 40.5l-1 26v26q0 31 10.5 52.5t38.5 24.5z" />
    <glyph glyph-name="C" unicode="C" horiz-adv-x="737" 
d="M339 734h14v66h-14v-66zM273 767l-14 14l-62 -24q-16 -6 -13 -13l8 -9q3 -2 1 -10q-6 -9 -14 -12l-19 -2q12 -18 14 -33q0 -13 -14 -33l-18 30q-4 8 -6 15t-2 17l3 18q-23 -15 -23 -28q0 -6 17.5 -27.5t14.5 -38.5l-20 -10l-20 -5q-8 0 -16 6v56l-23 -56q0 -6 4 -10
l-2 25q0 14 11 17q0 -6 2 -13.5t9 -21.5q12 -24 12 -34q0 -17 -23 -29l-16 -1q-12 0 -16 10l-10 -60l-3 -66q0 -49 3 -90q0 -6 9.5 -98.5t9.5 -135.5q-9 7 -10 23l1 33h-15v-89h15q0 -85 43 -158.5t119 -98.5t150 -25t140 22t120 67q48 55 66 162l14 111l-9 -14
q0 16 -20 25.5t-20 19.5q0 7 2 11h-66l-9 -146q-5 7 -11 26l-3 37l1 29l-1 12l-24 -57q-8 10 -10 27q0 12 6 27l19 45h-113l23 -10q-13 -15 -19 -38l-4 -50v-22l1 -20q0 -13 -0.5 -27t-7.5 -32q-11 -30 -40 -45l-33 14q-20 9 -23 28l-10 540q3 34 16.5 60.5t37.5 26.5
q12 0 26 -7l19 -202l272 9l3 21q0 27 -26 54q-23 28 -25 36q0 12 25 25q-3 5 -5 21l2 28q0 16 -3.5 24.5t-17.5 15.5v-79h-9l-8 11q-4 5 -2 12q-14 -6 -23 -6q-15 0 -19.5 11t-5.5 17t-1 22l2 36l2 33q0 9 -2 14h10l-13 13q-7 7 -20 6l-1 -17v-12l1 -26l1 -24l-3 -26
q-2 -14 -7 -27l-25 52q-11 30 -11 55q0 24 12 48l8 -6l4 -17l-1 -7l-2 21q-6 0 -24 12.5t-29 12.5l-12 -2q-5 -11 -10 -32l-2 -38v-18q0 -10 -2 -22q0 -12 -10 -26q-13 -3 -18 2l-4 18l1 19q0 9 -6 9l-15 -6l1 13l-2 26l-2 25q0 27 22 40q12 -3 12 -13q0 -6 -4 -14l-7 -12
l13 6l9 33h-33q-12 4 -13 -9q0 -12 -10 -15l-9 14l-47 -103q-9 5 -11 22l1 11q0 -14 -1.5 -19.5t-12.5 -13.5q-10 0 -10 14q0 7 1 12l-10 -17l-14 14q-2 11 8 28q6 9 6 15l-47 -66l-9 9l-1 17q0 15 10 21l-32 -14q-19 10 -19 21q0 6 7 17l12 18l32 -23l-1 15q0 8 1.5 12.5
t9.5 9.5l14 -14q9 -3 18 6l15 18l-11 2q-5 0 -11 -11q-3 -11 -11 -15zM508 687h14v47h-14v-47zM184 387l5 -22q5 -14 5 -23l-1 -11l4 -9q-10 -3 -16 -3l-15 -4q-6 -6 -6 -17l15 -10l-1 -3q-5 0 -9.5 6.5t-4.5 15.5l-16 -1q-4 0 -4 4l8 15q-1 1 -2 6q20 -9 25 -9q6 0 6 6
l-3 15l-3 19q0 17 13 25zM296 387v-47q-20 11 -20 24q0 9 6 23h14zM484 91l38 103l-24 -46l-14 14l14 -14q0 -14 -1.5 -19.5t-12.5 -13.5l-9 12q-3 4 0 11zM634 194l22 -54l21 -49q0 21 -31 65q-12 16 -12 38zM465 162q1 1 2 1h3l2 -7q0 -22 -16 -66l-5 -8l1 17l-1 26
q0 12 2 20t12 17zM442 16l-14 -80l-19 24l15 -36l18 -35q0 17 -1.5 22.5t-12.5 10.5l23 24q-10 8 -10 26l1 16l1 18z" />
    <glyph glyph-name="D" unicode="D" horiz-adv-x="630" 
d="M454 800h-106l-8 -220l-33 21l-34 18l1 -12q0 -12 -9 -15q-10 0 -10 21l-17 -21l-12 8v-20l27 2q14 0 20 -10l-19 -19h-29l-49 3q-17 3 -17 16l-8 -8l-16 26l-5 19l2 10q-30 3 -35.5 -32.5t-19.5 -41.5l-12 8q-2 9 5 20l7 19q-26 -36 -36 -76q-4 -18 -7 -40.5t-3 -45.5
l3 -66l9 -111l-1 -29q0 -16 -4 -29l-8 11v9q6 -15 9 -37l3 -42v-21v-17q-2 -12 -2 -17l-7 -98q0 -62 18 -101q23 -48 81 -72q30 -10 58 -10q39 0 75 15q36 13 75 42q8 -4 10 -18l-2 -21h247v310l-27 -47v12l-1 24l-4 42q0 20 4.5 34t15.5 30l12 -75l1 97l1 102q0 44 -1 76.5
t-2 62.5q0 22 -3 52t-8 62l12 -8v67q-7 -3 -10 -36q0 -32 -17 -51l-6 21l-2 21q0 20 28 86q14 34 14 58q0 21 -7 42h-121l7 -47v13v14l1 11q4 7 7 9q0 -6 3 -19.5t9.5 -36.5t6.5 -35q0 -16 -4.5 -25.5t-14.5 -17.5q-11 0 -14.5 5.5t-3.5 15.5v15q0 13 -9 19v-27
q-25 6 -34 37l-13 57zM528 706v82l-7 -94zM576 686l7 102zM407 733l-12 47l12 -59v12zM199 611l19 28l-27 -39zM151 627q6 -4 7 -7l3 -13l-1 -5l-1 17l11 7q3 3 9 1h-28zM293 600v-50q3 -19 4 -25.5t4 -19.5v21l1 19v11v8q-2 5 -2 7q0 9 -7 29zM320 564l25 -263
q0 -32 2.5 -87t2.5 -68q0 -86 -10 -186q-8 -9 -19 -9l-28 1q-10 13 -10 41t-10 41l-19 12q19 41 25 83t6 105q0 12 -1 37.5t-1 38.5l-1 74l3 74q19 22 28 40t9 42zM293 -123h8v55h-8v-55z" />
    <glyph glyph-name="E" unicode="E" 
d="M285 660l-11 36l-4 37q0 23 5.5 37.5t19.5 26.5q-32 0 -74 -21l-16 -17l15 14q10 -17 10 -37q0 -17 -6 -37l-19 -62q-36 11 -48 55l-8 48q-54 -42 -82 -106q-15 -37 -23 -91.5t-8 -129.5v-59q-2 -16 8 -34q24 -44 25 -53q0 -12 -10 -26l-9 14v-23q-6 -9 -9 -22l-3 -19
q0 -9 5 -25t17.5 -47t12.5 -51l-1 -11l-3 -18q-8 8 -14 23l-5 24q9 -80 19 -111q17 -58 56 -96q44 -38 111 -58.5t136 -20.5q101 0 196 36q70 39 108.5 106t38.5 141l-1 22q0 68 -34 95q-26 20 -84 20l-64 -3l-46 -2l-41 3l1 -48l1 -50v-40q-3 -15 -5 -31.5t-11 -42.5
q-40 -32 -40 -77q0 -46 -16 -69q-11 0 -11 14q0 7 1 11v-6l-23 -19q-14 22 -14 55t14 58l23 -14q-21 30 -30 68q-4 20 -6 39.5t-2 46.5q0 20 1 42.5t4 44.5l10 88h372v79q0 134 -16 201q-24 105 -97 172l-10 -127q-13 3 -13 33l-10 -9q-12 6 -12 21l2 26l-14 -15
q-12 -1 -18.5 14.5t-14.5 18.5l-9 -9l-80 89q9 14 23 14q10 0 27 -11q15 -8 24 -10q8 0 15 7q8 -5 23 -38q9 -21 34 -18l1 10q0 18 -22 28l-36 18l-76 14q-28 0 -37 -23q-26 27 -45 27q-24 0 -42 -52zM332 693l10 89zM398 693l-23 80zM196 669h9v48h-9v-48zM634 589l-10 80
l-23 -98l23 33q12 -11 12 -24l-9 -34l-3 -22l33 113zM351 627h47q4 -10 6.5 -19.5t2.5 -22.5l3 -48q-1 -11 -1.5 -23.5t-0.5 -18.5v-12v-40h-66zM657 514l24 66zM408 354l-43 57zM408 411l33 -39l23 -51q-18 15 -33.5 39t-22.5 51zM704 119l-70 80l37 -57l10 10zM544 185
l-9 -80zM601 185v-24l14 14l-4 -17q0 -15 11 -27l26 -26zM83 119l-24 42z" />
    <glyph glyph-name="F" unicode="F" horiz-adv-x="390" 
d="M169 700l1 -13q0 -12 -9 -15q-18 12 -18 39l9 51q3 14 1 21l-48 -35v-17q0 -9 -3 -28t-17 -31l-12 8q-1 3 -1 10q0 9 5 26l8 12q-12 -9 -16 -25l-3 -36v-18q0 -26 -5 -40t-23 -25q-5 -2 -11 1l-9 7v-123l13 1q12 0 19.5 -4t14.5 -17v-649h239l20 669h36l12 123h-60
q11 -9 11 -22q0 -10 -11 -31l-8 -22q-18 23 -18 48q0 17 10 27l-19 3q-6 2 -12 9l-2 15q0 22 16 45l17 24q10 -10 8 -16l68 8v115h-95l-28 -95q-6 7 -9 14l-2 15q0 13 9 37l10 29l-23 5q-26 0 -31.5 -50.5t-24.5 -50.5zM332 783l-8 -47l-20 39l-7 -24l-2 -26l1 -25l16 36
q6 -2 9 -10l3 -18zM344 688l8 87zM217 700l12 67zM133 756l-22 -74q0 -14 2 -22q9 14 14 36.5t5.5 37t0.5 22.5zM332 529h12v55h-12v-55zM65 529l-27 47z" />
    <glyph glyph-name="G" unicode="G" horiz-adv-x="648" 
d="M157 798q-10 -4 -35 -27q-17 -16 -34 -13l-15 -23q-9 -12 -9 -17q0 -8 24 -17l9 -32l4 -29q0 -19 -5 -29q-3 -11 -16 -21q-12 5 -12 29v10l-9 -10q-10 13 -10 34l1 19l1 16q0 -61 -7 -137q0 -69 -5 -118.5t-11 -101.5q0 -46 1.5 -64.5t6.5 -46.5t12.5 -54t19.5 -53
q3 -3 18 -5.5t15 -12.5l-1 -10q57 -42 128 -42q27 0 56 9q11 1 59 30q18 11 30 11v-31v-13q0 -49 -5 -65q-9 -38 -35 -38l12 -8q-21 -3 -21 -15l4 -22l-3 -12q8 8 14.5 32.5t13.5 32.5l8 -8q12 -12 12 -26q0 -9 -9 -30q-4 -10 -7.5 -21t-3.5 -13l-8 13v-29l-20 16
q0 -19 -13 -28q-10 10 -15 27l-4 34l2 33l1 32l1 13q0 22 -13 30.5t-36 8.5l-39 -3l-39 -3l-21 3v-21q0 -13 -12 -16q-9 3 -9 14l1 23h-21v-17l1 -21q0 -18 -9 -27q-12 9 -12 31v34h-49v-28l20 12q9 -9 9 -21q0 -10 -5 -19q-12 -24 -12 -29q15 -37 46.5 -63.5t67.5 -34.5
q16 -4 40.5 -8t36.5 -6q42 -6 76 -6q87 0 153 27q74 30 127 99q14 123 16 145.5t2 71.5q0 37 3 115t3 121l-2 234l-2 173h-20q12 -32 12 -79q0 -26 -4 -39q-4 4 -11 21q-4 13 -9 20q-4 -3 -7 -11l-2 -15v-13q0 -12 -3 -18.5t-17 -12.5l-29 78q0 17 13 33q12 5 28 -10
q9 -8 17 -11l-9 49q-5 -3 -11 -3l-14 2l-15 2q-8 0 -17 -6q-6 -6 -12 -23q-5 -3 -16 8q9 6 9 18l-1 10l-15 2q-23 0 -32 -48q-6 -48 -22 -60q-9 12 -9 30q0 13 13 46l8 30l-13 2q-11 0 -16 -6q-3 -6 -3 -20v-19l-1 -18q-4 -6 -8 -8q-5 5 -8 21l-2 18v15q1 6 2 7l-21 -126
q-11 0 -11 21l-1 -5l-8 -8l-17 50q0 13 17 19q-11 -6 -20 21q-6 28 -29 28l-1 -13v-16l1 -15l-1 -15q-1 -2 -2 -4.5t-5 -5.5q-6 9 -11.5 50t-33.5 41l-16 -2q3 -18 -7 -38l-3 -6q-4 -7 -11 -17l-8 13q-7 -6 -18 -8q-12 0 -18.5 27t-12.5 29zM149 778l-32 -28q22 0 22 -28
q0 -27 10 -34v90zM325 652q7 -11 32 -11q27 -3 27 -17l-2 -13q3 6 0 9l-9 11h-12l-1 -71l-1 -76l3 -105l11 -90q10 3 10 15l-1 13l-16 -54q-15 -54 -15 -90v-14l2 -17l1 35l-2 12q-3 7 -7 10q-17 0 -27 -19l-14 -30h8v-37h-8q3 6 0 9l-8 12h-20q6 20 10.5 44t4.5 44
q4 44 4 112v73q0 78 6 139t24 106zM402 521l-20 21l20 -37v16zM410 199l-28 33l28 -49v16zM394 134l-21 36l21 -69v33zM422 101l-12 49zM276 101l8 12l-8 -40v28zM117 -54h12v41h-12v-41zM206 -62l-8 28l8 -48v20zM80 -82h8v36h-8v-36zM263 -111h13v49h-13v-49z" />
    <glyph glyph-name="H" unicode="H" horiz-adv-x="640" 
d="M38 800v-1000h238v246l-28 12q4 12 8.5 23t11.5 25q9 -6 9 -19l-1 -13l3 77l-2 92l-2 68q0 28 1 53t5.5 56t22.5 74l10 1q21 0 38 -20l11 -675h239l7 123l-7 -8l-12 8v15l3 25q3 9 16 16q0 29 -2.5 94t-2.5 90l-10 219l-4 160l1 -24q0 -10 -9 -16q-18 9 -19 25l4 21l3 22
l-22 24q-8 9 -22 16l-21 -32q-11 -11 -26 -8q-10 7 -19.5 22.5t-9.5 26.5q1 5 2 6h7l-12 -47q-18 0 -33 22t-23 25l-2 -13h4l9 5q2 -1 4.5 -2t4.5 -5l-1 -14l1 -22q0 -20 -12 -32q-9 3 -9 15l1 13l-8 -8l-20 16l-1 -14l1 -25q0 -15 -1.5 -21.5t-9.5 -15.5l-16 108l-44 -21
q-7 0 -16 9v190l-123 12l1 -13q0 -11 -9 -19q-15 15 -12 20zM50 760l8 28zM145 685l16 95zM268 733l-20 47zM98 768q-9 -3 -11 -12q6 -12 6 -17q0 -6 -15 -6q9 -5 9 -16l-1 -24l-1 13q0 17 11 47zM324 590h-8l8 -28v28zM534 483l-8 95zM494 514h12v48h-12v-48zM268 284h8v40
h-8v-40zM240 -37l28 83zM268 -125h8v40h-8v-40z" />
    <glyph glyph-name="I" unicode="I" horiz-adv-x="286" 
d="M13 798v-123h257l-12 123h-15q0 -5 -6 -13l-6 -7l-5 6q-6 7 -3 14h-20q2 -5 -1 -11l-7 -9l-12 8v-47l-8 10q-3 3 0 9l-27 -75q-28 9 -28 31q0 11 9 31l26 53h-19q-2 -17 -8 -30l-20 -45l-14 11q-7 6 -6 16h-10h-12q-10 0 -13 8l8 12q-6 30 -36 30zM68 798h48h-48z
M250 786l-7 -28q-12 12 -20 12v-31l-1 -8v-4q0 -15 21 -24l-1 18v18q0 28 8 47zM41 731h12v47h-12v-47zM61 731q9 -3 9 -21l-1 -5l-1 18l12 8l6 -8q4 -5 2 -12l3 12q0 14 -16 14q-6 0 -14 -6zM13 616l8 -815l60 -1l62 -1h24h24q10 2 14 2q26 0 53 8l12 106l-39 -59l-8 12
q25 41 38 99q5 25 8 55.5t3 63.5q0 50 -7 127l-7 110l-8 -8l-5 33q0 25 7 56q18 80 18 102v16q0 10 -2 19t-10 27l-15 -19l-15 3q-12 1 -17 8l21 37q12 20 26 19h-55l1 -28q0 -12 -9 -20q-12 6 -12 22v26h-170zM128 596l15 -39q14 -21 32 -24q3 0 4.5 1.5l2.5 2.5
q0 19 -41 55zM100 549l-12 31l12 -47v16zM223 533v16h-12l-8 -28l8 12h12z" />
    <glyph glyph-name="J" unicode="J" horiz-adv-x="312" 
d="M93 799h-18l18 -42v42zM110 799v-103h-28l-7 10v8h-7v-25h7l16 2l18 -1l18 -1l21 3q8 3 12 15l7 -11v-7h129l-8 110l1 -20q0 -9 -8 -12q-6 -1 -11 1l-7 6v7l8 11l-75 7l8 -8q8 -6 16 -8q7 0 8 16q13 -10 13 -26q0 -9 -13 -47l-7 -30q0 14 -14 34q-11 20 -13 33l2 11v-19
q0 -12 -11 -16q-5 6 -7 22v31l-1 -19v-16l1 -14q0 -17 -1.5 -26t-9.5 -21l-14 29q0 9 -9 33l-8 31q0 13 17 10h-43zM253 696l18 43q9 -1 10 -14v-18h7v25h-7q-9 9 -14 9t-10 -12zM75 639q-8 -8 -8 -19q0 -7 10 -28l5 -16q0 -9 -14 -15l1 -232l4 -219l2 -197l-18 -18l-18 18
v-18h11l1 -19q0 -11 -3.5 -19.5t-15.5 -11.5q-9 9 -9 30l1 18l1 20h-11v-111h11h33l34 -1q78 0 115.5 14.5t63.5 43.5q13 63 18 106.5t5 74.5q0 38 3.5 115t3.5 104l-1 143l-4 237h-221zM196 586v42l-18 -60zM271 586h10v42h-10v-42zM117 579l-24 42zM253 554h10v67h-10v-67
zM210 41l-7 42zM178 73q8 -8 8 -24l-1 -33l1 19q-1 10 -8 13q-11 -6 -11 -18h-7zM239 73q7 -3 7 -11v-21q1 11 -9 11q-10 1 -9 7z" />
    <glyph glyph-name="K" unicode="K" horiz-adv-x="621" 
d="M30 800v-48l8 12l18 -31q9 -12 29 -16l1 -13q0 -11 -9 -19l-8 11v9l-1 -12l1 -14q0 -14 -12 -22q-13 -1 -16 17q0 17 -11 23l8 -897l238 12l-1 55l-1 55v39t2.5 38.5t11.5 58.5q17 -38 37 -128t38 -130l230 12q-9 59 -45 160l-57 168q-14 51 -21 91t-7 79q0 54 15 105
t48 99l6 15l3 15q0 18 -21 18q0 -23 -11 -38l-45 -37q-21 21 -21 61l3 35l10 38l16 -19v19h-36v-31v-11q0 -12 -3.5 -18.5t-15.5 -6.5q-5 5 -8 17l-2 14l1 18l1 18l-1 -13l1 -22q0 -20 -12 -32l-8 8v-56h-12q0 13 -9 39l-8 36q0 14 9 29l8 -8v19q-13 -12 -18.5 -34t-5.5 -50
v-37v-29q-3 -17 -4.5 -25t-6 -16.5t-13.5 -18.5l-16 56l-1 -16l1 -28q0 -13 -2 -21q0 -9 -10 -19q-14 29 -22 63q-3 19 -4 32t-1 41l3 66l7 114v18v15q-2 10 -2 15q0 23 -8 45l-96 8q8 -8 10 -24q0 -13 -7.5 -25t-21.5 -26q0 23 -16 28t-17 15q0 11 5 24l1 -13q0 -12 -9 -15
l-20 36l-3 -10q0 -10 14 -21l17 -17l-8 -8l36 -19q-9 -9 -20 -8v-32q-10 -10 -16 -8l-14 12q-7 9 -6 16q6 12 20 12q-24 3 -33.5 39.5t-26.5 43.5l15 -28q6 -11 6 -20q0 -8 -9 -19q-16 12 -30 33t-9 34zM228 752l12 28zM553 610l-19 11l11 -39zM335 494h8v40h-8v-40z" />
    <glyph glyph-name="L" unicode="L" horiz-adv-x="283" 
d="M13 799v-19q11 2 17 -1q5 -1 23 -19l-20 -20l-7 -1l-13 13v-951l63 -1l63 -1h25h25q11 2 15 2q27 0 59 8v721l-20 20q0 17 12 88q6 33 6 53l-3 26q-1 12 -7 23q12 -6 12 -20h8v79h-8l-1 -12l1 -14q0 -15 -12 -21q-9 3 -9 15l1 13l-2 -16q0 -11 10 -24l-56 -8
q-15 6 -24 34l-4 22l-11 -8q-9 12 -25 16l-38 4l-32 -1q-20 0 -31 -2zM108 788l-8 -56l8 8q6 -2 9 -10l3 -18l-1 14l1 25q0 15 -2 21q-1 9 -10 16zM140 788l-2 -11v-9q0 -38 29 -64q4 6 14 7l13 -2l12 -2q8 0 10 15l-1 10q0 -15 -2 -20q-6 -6 -10 -8q-5 8 -30 31
q-37 34 -33 53zM45 704l8 36zM72 550q0 -7 5.5 -17.5t2.5 -18.5l-20 -20z" />
    <glyph glyph-name="M" unicode="M" horiz-adv-x="1180" 
d="M358 706l-10 15l-2 24l1 21l1 21l-43 1l-38 1h-19.5t-27.5 -3.5t-44 -12.5l24 -4l24 3l21 3q11 0 16 -8q6 -6 6 -28l6 6q7 7 18 4l1 -14q0 -22 -9 -57l-16 -63l-14 91l1 -16q0 -14 -11 -17l-9 9l-3 26q0 14 12 22l-13 -12q-3 -5 -5 -19l3 -23l3 -24q0 -15 -12 -27
q-3 -2 -9 -2q-15 0 -31 20l-3 6l-14 -15q-11 11 -32 55q-15 31 -25 27l-10 -10q-12 9 -12 24q0 8 9 29.5t3 27.5v-13l1 -14l-3 -12l-12 -9l-19 48l-3 -13q0 -7 4 -14l18 -21q-14 -74 -17 -98q-8 -54 -8 -99q0 -31 -3 -102t-3 -112l3 -196l9 -332l286 14l-2 31v27l1 64v30.5
t2 34.5q0 63 -6 90t-19 43q6 16 9.5 30.5t7.5 34.5q5 35 5 76l-3 79l-9 134v25t2 28q0 13 4 29t8 31q6 15 23 21l34 12q21 -21 31 -50t10 -70l-3 -60l-9 -101v-19t2 -20q0 -15 12 -42q18 0 23 -1.5t11 -12.5l-19 -19l-15 9v-448l286 14q0 25 -2 89t-2 77q0 30 -4 91t-4 92
l-4 165q0 45 1 85t5.5 91t19.5 130l-43 -66q-4 6 -8 13.5t-9 20.5q-1 4 -2.5 14t-2.5 18l6 48q6 33 6 57q-26 23 -65 42t-68 19l-19 -3q9 -3 10 -13q0 -7 -9 -19l-11 -16l-9 14l-15 -14l-9 14l-1 17q0 11 10 17q-42 0 -84 -27q-35 -23 -63 -64zM858 797l-81 -47
q-26 -21 -26 -47q0 -16 7 -30l1 13l-1 25q0 19 10 28q11 -7 16.5 -20.5t5.5 -29.5l-1 -32q0 -20 2 -25q6 -21 34 -31l14 -801l272 14q0 14 4 27l11 48q0 23 -24 40l13 63l5 35q0 18 -9 26q3 48 5 85.5t2 81.5l7 184q0 92 -9.5 157t-37.5 112l-10 -15l-14 15q0 5 -12 24
t-12 29q0 14 24 23l33 -33l-57 57l-10 -91l-8 10q-3 6 -1 14l3 28q0 39 -36 54q-27 10 -79 10l-21 -1h-20zM939 787l-23 -24l-10 10l10 -81l3 23q2 10 11 15l8 -12q3 -5 1 -12v81zM553 773l-24 -100l-11 -2q-11 0 -11 18q-3 19 -11 27q0 21 28 27q29 9 29 30zM882 773
l-24 -34l-8 10q-3 6 -1 14q-9 -5 -15 -16q-3 -8 -5 -26q0 -23 8 -47q4 -12 10 -21q1 -1 2 -4l9 9l15 -9l-1 15v13q0 12 1 27t4 34zM963 692h10v81h-10v-81zM620 763h24l-1 -16q1 -14 10 -17l15 9q-10 -6 -12.5 -12.5t-2.5 -18.5l1 -22l-1 -13l1 13q-1 13 -10 20
q-12 -8 -12 -22l2 -26l-1 25l-1 24l2 25q4 11 10 17zM415 749q10 3 19 -6l14 -13v-24q-6 3 -12 -3l-12 -11q3 -23 10 -23h15l-10 -20zM801 749l14 -67zM176 730q13 -1 19 -14h15v-34h-15l1 17q-1 14 -10 17l-10 -10v24zM358 649l9 57zM496 158l-14 81z" />
    <glyph glyph-name="N" unicode="N" horiz-adv-x="762" 
d="M511 800l-2 -20l1 -19l1 -20q0 -16 -5 -26q-3 -9 -19 -16q-20 6 -31 41.5t-18 40.5q-33 -15 -54.5 -42.5t-21.5 -63.5l-15 10l-10 -10q-20 0 -22 10l5 15q0 8 -16 9l-1 20l-1 13q0 15 3.5 23.5t17.5 15.5q15 -9 15 -28l-1 -30l1 12l-1 21q0 15 10 25h-82v-15l15 15
q9 0 24 -15l-1 -15l1 -22q0 -21 -15 -30l-9 11q-3 6 0 13v-11q0 -7 -1.5 -12.5t-13.5 -14.5q-21 29 -21 70v12l2 14l1 -16q0 -25 -9 -52l-16 -48l-14 116l-1 -13l1 -20l1 -12q0 -16 -3.5 -23.5t-17.5 -13.5l-14 10l1 13l-1 25q0 14 2.5 20.5t11.5 13.5h-24v-14l1 -14
q0 -14 -15 -20q-8 3 -10 18l1 20l-1 10h-48l15 -15l-1 -15l1 -22q0 -21 -15 -30l1 13q0 17 -20 23q-18 3 -19 19q0 14 5 27h-24l24 -24l-1 -14l1 -15q0 -15 -10 -19l-14 14l6 -27l2 -31l-3 -59l-2 -42q0 -23 1.5 -35t9.5 -27h-14q15 -9 26.5 -31t11.5 -51h-14q-9 5 -11 21
l1 13v-19q0 -19 3.5 -30t20.5 -18l-1 -11l1 -20q0 -19 -14 -27l-10 14q-7 -37 -10 -61t-3 -58l-3 -164l1 -133l1 -127h302v24l-14 -14q-9 -5 -19 14l4 41q4 22 29 26v678l34 58l12 2q9 0 20 -7l26 -14l-2 -19q0 -22 18 -51q39 -60 39 -77q0 -12 -7 -26l-39 57v-692h289v817
l-43 10q5 7 14 50l5 8l-10 -10q-13 2 -33.5 -16t-29.5 -18t-18 10l14 -10l-24 -24q-17 6 -21 13l-3 13l6 20q6 14 6 23q0 11 -12 23l2 -15q0 -15 -10 -34l-16 -33l-10 14q-13 28 -13 63q0 23 5.5 42t17.5 35q16 0 25.5 -23t12.5 -25v57q-12 9 -27 9q-12 0 -29 -6t-25 -3v10z
M612 781v-58l38 43l19 -57l5 23q0 22 -30 36zM429 665l-10 92zM660 608h9v33h-9v-33z" />
    <glyph glyph-name="O" unicode="O" horiz-adv-x="738" 
d="M254 800l-38 -14q-30 -10 -39 -57q-12 -64 -18 -75q-10 13 -10 39l1 23l1 22l-1 15l-57 -43q-31 -42 -45 -87q-13 -47 -13 -93q0 -26 12 -131q6 -51 6 -83q0 -39 -7 -73h-9l-1 -54l-4 -95q0 -37 4 -69t13 -57q21 -66 77 -108q56 -24 128 -42t136 -18q56 0 97 11
q44 9 83 35q74 51 106 153q24 77 24 195l-4 110l-3 109v39q0 71 -6 115q-9 66 -36 105l9 -9q0 -16 -2 -22q0 -5 -7 -11q-13 15 -29 63q-12 45 -52 60l-33 -43l-37 33q20 -22 20 -41q0 -12 -14 -31.5t-16 -31.5l-9 13q-3 4 0 11q-15 -6 -25 -6q-17 0 -22 15l-4 31l2 48l3 32
q0 13 -2 17h-122l-1 -16v-14q0 -15 2 -24t8 -17q11 0 13 9l-8 21q0 8 19 8l-1 13q0 13 10 20q6 0 9 -8l3 -16l2 10q1 5 9 9.5t24 4.5q-3 -17 8 -37q27 -48 29 -59q0 -15 -13 -32l-14 15l-24 -24l-33 66v-57l-24 24q3 -7 -2 -15l-7 -9l-17 17q-9 9 -7 21l-23 -38l-10 15
l-1 12l3 21l8 23q-3 -6 -10 0q-12 14 -12 40zM207 710h9v43h-9v-43zM580 729l-26 -47l-17 -52q11 12 20 32zM613 672l-10 -56l-1 16q0 15 11 22q5 -1 10 -12l4 -17v14zM353 630l13 3q13 -2 21 -17l13 -19l-14 -614q-50 0 -59 12q-4 5 -16 59l12 38q7 21 7 38l-2 19l-8 18
l-24 -47v217l15 -14l13 17q8 9 8 17l-3 13q2 3 2 13v11l-1 41l-1 52q0 15 0.5 28.5t4.5 51.5q8 42 19 63zM150 460q-12 -11 -12 -26q-1 -16 -2 -31l-19 24zM320 257h9v42h-9v-42zM311 177l9 56zM320 -41l57 -113zM410 -163l-33 89z" />
    <glyph glyph-name="P" unicode="P" horiz-adv-x="659" 
d="M451 800l-50 -108q-7 3 -11 10l-2 19l-8 -13q0 9 -6 24l-5 21q0 14 19 26l-58 -37l8 8q6 2 11 -1l10 -7l1 -11q0 -23 -22 -39h-7l-14 8l13 8l-42 -37q-17 12 -17 35q0 12 1.5 18t6.5 22l9 33h-129l8 -71l1 14l-1 21l1 15q1 7 12 13l9 -42l5 -38q0 -18 -6 -33
q-26 7 -40 48q-24 80 -51 80q-13 0 -30 -7q16 -7 13 -21l22 2q12 0 15 -10l-16 -21l-13 13l1 -14l-1 -12q-4 -6 -8 -8q-8 5 -16.5 18.5t-8.5 21.5q0 6 4 10l-8 -8l-13 29l-8 -979h250l8 821l22 21q13 9 29 10l12 -2q11 -44 15.5 -97t4.5 -110l-2 -128l-2 -94q14 0 20 -2
q7 0 14 -7l-4 -15q0 -9 7 -30l4 -18q0 -17 -20 -28q-2 5 -3 7q-4 8 -11 17q-12 19 -7 34l3 -37q0 -12 -0.5 -26.5t-7.5 -36.5q-7 -28 -24 -58q-9 3 -9 15l1 14l-1 -14q0 -12 9 -15l-29 -29l29 -42q51 -39 127 -39q35 0 65 10q52 22 74 79q15 41 15 111l-1 41l-1 40
q-6 39 -6 80q0 21 1 45.5t4 52.5q12 132 12 166q0 65 -12.5 118t-48.5 104q1 -11 2.5 -17t5.5 -17q14 -44 14 -59q0 -14 -2 -19q0 -6 -7 -17q-11 11 -13 21l-16 -21l3 24q0 12 -12 34t-12 55q-2 -25 -3 -34t-5 -23q-2 -14 -4 -21t-9 -22q-10 8 -16 21l-4 26q0 14 6 38
t9.5 39.5t4.5 25.5l-15 -1q-11 0 -14 9l-1 -8v-6l1 -24q0 -11 -2 -17.5t-11 -15.5zM259 658h8v113h-8v-113zM209 671h8v58h-8v-58zM609 608l-8 63zM38 621h13v37h-13v-37z" />
    <glyph glyph-name="Q" unicode="Q" horiz-adv-x="663" 
d="M202 800l-9 -38q-6 3 -10 11l-2 19h-30q-36 -7 -64 -37.5t-28 -67.5q0 -24 13 -46q9 -26 22 -44q9 -11 9 -27q0 -19 -2 -29l-21 14l-16 15l16 -21l-8 -8q-15 0 -28 19l-14 22l3 -40q1 -13 18 -22v-14l1 -16q0 -12 -9 -21l-13 13l-1 -80v-80q0 -25 1 -64t1 -52
q0 -23 3.5 -44.5t8.5 -43.5l-3 -32q0 -38 12.5 -72.5t40.5 -54.5q21 -27 55.5 -39.5t70.5 -12.5q19 0 36 2t39 8q30 16 48 42t23 59q4 -11 7 -36l2 -45l-1 -30v-31l1 -44q1 -11 2 -16t6 -16l251 8v553l-30 8v19l3 27q3 8 18 17l9 351h-30l1 -15q0 -7 -3 -11.5t-6 -6.5
q-9 0 -14 4l-7 8v8l8 13h-16l-1 -16v-13v-22l1 -20l-3 -35q-2 -14 -10 -28q-6 14 -12 16q-12 0 -17 5v11l8 10q-6 -5 -18 11q-10 18 -10 34q0 15 11 26q12 0 9 -25v4l21 42h-63q0 -17 3.5 -28.5t17.5 -21.5l-1 -16v-19l1 -18l-1 -19q0 -6 -7 -12l-23 68q0 11 2 16l-1 -18
l1 -33q0 -14 -2 -20q0 -6 -7 -13l-12 13q-10 20 -10 48q0 24 5 41t17 32h-83l1 -26l1 -27q0 -19 -1.5 -27.5t-9.5 -19.5q-3 24 -16 27t-13 31q-10 -8 -19 -10q-2 3 -3 5q-5 9 -8 16q-4 20 -20 19q0 -23 16 -49l13 -10l8 9q9 -6 12 -24t9 -27l13 13l8 -573l21 -21l-37 -26
q-17 -12 -34 -12q-12 7 -15 11q-9 8 -6 18l2 -6v-5q0 -8 -7 -16l-16 -15l-6 26l-2 28q0 18 1 27t6 29q2 10 4.5 21.5t9.5 32.5l-21 -21q6 -4 8 -12q0 -6 -6 -15l-11 -15l-10 18l-2 26v18l1 19l-1 11q25 25 34.5 64.5t9.5 97.5l-1 57l-4 96l3 53q34 28 34 48q0 9 -58 58
q-27 21 -27 47l1 10l29 21q-6 9 -25 9l-21 -1l-15 1q-5 2 -10 8zM93 662l-13 59l13 -88v29zM51 612l-8 79zM624 633h9v58h-9v-58zM64 38l-13 42zM323 -20h8v58h-8v-58z" />
    <glyph glyph-name="R" unicode="R" horiz-adv-x="533" 
d="M456 800q-36 -13 -60 -33q-33 -27 -33 -58l1 -11q-6 6 -29 -5q-12 -6 -20 -6q-15 0 -24 21v26q0 14 15 22q9 -6 10 -20l-1 -14v21l1 24q0 19 -10 23v-11q0 -7 -1.5 -13t-13.5 -10q-11 3 -11 20l1 14h-24q1 -5 3 -12.5t12.5 -28t10.5 -36.5t-11 -30l-15 15v-58
q-17 31 -30 71.5t-13 78.5h-25l-1 -11l1 -20q0 -19 -14 -27q-9 8 -11 24l1 34l2 -6v-5q0 -9 -6 -18l-20 -29l-10 10l2 17q0 17 -11.5 25t-29.5 8l-27 -1q-16 0 -26 -2l-15 1v-990h306q0 61 -12 197t-12 202q0 26 1 49.5t5.5 56t17.5 68.5q6 61 92 77l83 15l3 57
q0 26 -3 51.5t-11 58.5q-14 64 -14 94q0 34 10 74l1 -14q0 -11 -10 -20zM73 766l-15 15l15 -49v34zM456 781l-24 -73l-24 58l-20 -20q-12 -11 -14 -24q24 -11 24 -33q0 -13 -7 -30q-15 -40 -17 -53l-9 9q-3 4 -1 10h-15v-58h15q7 12 25 67q13 41 33 64q9 -5 11 -21l-1 -13
q13 12 20 27q3 9 4 15t1 22l-1 25v28zM107 683l-10 39zM165 674l-10 34zM39 523q4 -27 9 -62t5 -57q3 -20 4 -51.5t1 -37.5l-7 38q-4 32 -7.5 67.5t-3.5 63.5z" />
    <glyph glyph-name="S" unicode="S" horiz-adv-x="700" 
d="M298 799l-13 1q-27 0 -39 -35l-4 -13l14 9q10 -13 10 -30q0 -15 -10.5 -40t-13.5 -42q-9 8 -11 24l1 14v-13l1 -14q0 -14 -15 -20l-9 13l-2 19l2 31q0 14 -4 22.5t-19 17.5l32 32q-20 0 -38 -5.5t-39 -21t-53 -52.5h18l1 -23l2 -19l-3 -27q-1 -8 -9 -20l-33 66
q0 -14 -1.5 -19.5t-12.5 -13.5l38 -9l-1 -11l1 -16q0 -14 -14 -20l-10 9l-14 -9l-8 11q-3 5 -1 12h-9v-168h9q15 -83 83 -138q17 -13 50 -33t89 -50q95 -49 137 -91q5 -9 10 -57q0 -46 46 -46l1 -24q0 -15 -15 -18l-19 20q-10 12 -23 13l-10 -18l-3 -19l1 -23
q0 -10 -3.5 -16.5t-16.5 -12.5l-1 -12l1 -20q0 -18 -14 -24l-33 98l2 -11q0 -10 -9 -22l-16 -23v238h-154q9 -21 9 -45q0 -38 -23 -58q-5 6 -8 19l-2 24v20l1 21l-1 19h-79l9 -182q12 -56 72 -100q44 -32 110 -54q68 -14 131 -14q77 0 143.5 21t117.5 68q25 24 34.5 61
t9.5 85l-1 52v19v16q-2 12 -2 17l1 30q-19 9 -34 26q-19 21 -19 40q0 16 11 27l24 -23l-80 79q8 -8 12.5 -26t20.5 -21l-23 -23l23 -23l-9 -10q-21 0 -35 23l-12 24l-1 -11l2 -27q0 -14 -10 -18q-11 6 -14 32q0 24 -10 33q4 4 10.5 13t11 17t5.5 20q0 19 -33 36
q-91 44 -96 50q4 -5 7 -17l2 -21v-18q0 -14 4 -23t19 -10l1 -19l2 -20q0 -20 -12 -31q0 18 -31 57q-27 35 -29 48q0 10 13 16l-9 -9l-9 9l-1 17q0 12 10 21l-23 18l24 -80q0 -14 -10 -27q-39 23 -44 70l-3 75l8 -12q3 -5 1 -12l-18 24l-56 -103l-14 9v14v18q0 18 14 24
l-24 -18l-14 9l19 64q12 36 37 48q8 5 11 13.5t3 19.5q0 23 21 47t48 24l11 -1q33 -50 33 -122v-17l-1 -11l248 -9v49q0 47 -3 77.5t-11 49.5q-12 36 -42 57q4 -13 -6 -29l-18 -27q-12 12 -12 28l4 26l5 20q0 10 -4 15.5t-16 13.5q13 -13 13 -27q0 -9 -7 -29l-6 -24
q0 -18 23 -32q-5 -12 -20 -12l-13 1l-13 2q-14 9 -14 29q0 13 4 28l11 50q0 17 -13 27t-44 10q5 -9 11 -38l4 -42l-1 -22q-20 18 -30 50l-17 62q-33 12 -50 12q-30 0 -37 -59q0 -55 -34 -75q-12 15 -12 36q0 10 2 20t9 31q12 33 10 49h-23zM377 673h9v88h-9v-88zM489 761
l9 -32l14 14l-14 -14q-9 6 -10 19zM176 752q0 -24 -14 -51q-32 -64 -32 -84q0 21 8 22l15 -5q7 0 9 15l-9 -9q-13 13 -9 23l8 9q3 3 10 1zM592 561h9v102h-9v-102zM634 561h14v70h-14v-70zM489 304v-79q-23 0 -23 25q0 24 -10 31q17 2 24 5q12 6 9 18zM74 94l14 42zM106 80
h14v47h-14v-47zM176 127l24 -103l15 50q5 15 5 32l-2 21q13 -23 13 -47q0 -23 -9 -44q-2 -6 -16 -26q-2 -3 -11 -19q-6 8 -9 17.5t-5 18.5q-5 18 -5 64v36z" />
    <glyph glyph-name="T" unicode="T" horiz-adv-x="447" 
d="M146 800h-61l-3 -24l2 -33l2 -26q0 -21 -6 -33t-25 -18q-19 0 -28 -13q-7 -14 -7 -34l2 -36l2 -27l-3 -23l13 -1l25 1q15 0 26 -9v-228l9 9q2 -12 11.5 -36t11.5 -40q0 -15 -10 -28q-13 0 -22 13l-1 -80l-1 -84q0 -101 11 -167q31 -49 93 -70q45 -15 122 -15l58 1h22h23
q10 2 14 2v133q-4 -22 -13 -39t-30 -21l12 -13l-21 -21q-10 66 -17 134.5t-7 127.5q0 45 -3 144t-3 153q9 14 9 80q0 67 33 67q15 0 40 -13l-1 14v12v25l1 26v14v10q-2 6 -2 8q0 11 -7 24h-13l-9 -90l-23 74l2 16l-12 -2q-12 0 -18.5 20t-12.5 25l-17 -30q-5 3 -10 15l-3 23
v14v8l-9 -8q-5 6 -10 16l-3 19v34l1 -27l2 -20q0 -13 -5 -21q-2 -6 -15 -14h18q6 -1 12 -9q-3 -17 -18 -25l-25 -5q-1 2 -10.5 11t-18.5 16q-31 27 -31 55v-82l-30 39l-13 -9q-12 6 -18 16l-4 27v16l2 20q0 10 -2 12h22zM176 800l9 -4l18 1q8 0 15 -5t10 -22l21 30
q6 1 10 -16l3 7zM344 800h-43l13 -30zM107 739h9v43h-9v-43zM124 369l-17 60zM331 193h13v43h-13v-43z" />
    <glyph glyph-name="U" unicode="U" horiz-adv-x="764" 
d="M344 797h-286l34 -24l-9 -25q-4 -11 -15 -22l-10 14l-6 -113q0 -30 -3 -70t-3 -51q0 -52 6 -90.5t26 -65.5l-10 -9l-10 9l-4 -43q0 -28 20 -44q21 -14 21 -48l-3 -36l-16 22q-10 13 -10 24q0 7 2 11l-10 -57l-12 12q-4 5 -2 12h-9v-33h9q25 -17 25 -40q0 -16 -14 -44
q-11 -26 -13 -35q0 -13 16 -19q-9 12 -9 26q0 18 19 31l10 -31l4 -38q0 -44 -14 -69l-10 14l34 -105q55 -36 90 -49q15 -5 32.5 -8t35.5 -3l37 3q68 12 95 32q26 17 38 49l24 -66h285v979l-13 -2q-10 0 -16 2q-14 0 -14 -14l10 -10q12 -26 12 -57q0 -24 -8 -43.5t-28 -36.5
q-6 33 -11.5 62.5t-14.5 69.5v14l2 15l-23 3q-14 0 -21 -1t-25 -7l-36 -7q-16 0 -28 12l-14 -14l24 -10q3 -12 -4.5 -23.5t-19.5 -23.5q-9 3 -12 5l-12 9v-57l-12 13q-8 11 -8 19q3 9 -2 22l-4 19q0 17 26 17v24h-10l1 -16q0 -11 -10 -17q-5 1 -9.5 9t-4.5 24l-3 -276
l-5 -282l-2 -241l-1 -30v-26q0 -22 -5 -36q-3 -14 -18 -31q-41 61 -59 165q-13 85 -13 201l2 146l2 110q0 21 -1 56t-1 49q0 39 -10 91l-24 -24l-10 14l15 58q6 19 19 32l9 -11q3 -4 5 -12v47zM116 683h9v100h-9v-100zM206 683l-14 81zM239 659h10v91h-10v-91zM591 659
l24 91zM515 707l10 33zM330 536h14v90h-14v-90zM101 79l-9 57z" />
    <glyph glyph-name="V" unicode="V" 
d="M34 796l24 -48q0 -140 31 -307l63 -338q32 -172 32 -303l397 10q0 96 16 207l34 230q17 121 17 201q10 8 17 21q3 8 5 27l-1 22q0 14 -2 22q0 22 15 34l-43 -44l-25 25q14 6 27 30.5t32 36.5l9 -9l18 74q11 42 11 68q0 17 -5 32l10 9l-25 1l-43 -2l-29 -1h-14l-15 2
l-1 -18l1 -23l1 -23q0 -28 -10 -42q-8 9 -11.5 21.5t-3.5 29.5v19l1 20l-1 16l-14 -1l-14 2q-12 0 -15 -10q12 -19 22 -45t10 -50q0 -26 -13 -46l-13 41q-3 15 -21 27q0 -6 1 -9.5t7 -21.5l5 -21q0 -21 -23 -30q0 11 -4.5 28t-12.5 36q-17 40 -17 57q0 13 3.5 22.5
t16.5 20.5h-34q-11 -82 -22 -216l-17 -231q-6 -64 -12.5 -116.5t-16.5 -108.5q-10 75 -16 106q-9 64 -32 102l3 38q0 24 -3 49t-5 41q-8 67 -8 96l3 42q-5 12 -9.5 40.5t-4.5 69.5q0 88 -68 88l-10 -82l-18 31q-4 9 -6 16t-2 18q0 12 2 17l-1 -13l1 -25l-2 -15q0 -6 -12 -14
l-20 67l-18 4q-30 0 -62 -69l-26 -60l-10 9l-4 24q0 17 12 40l26 43zM136 738l14 49zM673 772q-20 0 -28.5 -13t-8.5 -32l2 -33q1 -7 1 -13v-10l19 43l-19 15l-1 13q0 13 10 20l6 -6q6 -6 19 -8v24zM242 714q11 -9 11 -26q0 -15 -6 -27t-15 -15l8 -1l12 11l1 14q0 10 -4 21z
M474 632h10v58h-10v-58zM639 463l19 43zM334 192l14 58zM184 76l-10 14l10 -48v34z" />
    <glyph glyph-name="W" unicode="W" horiz-adv-x="1098" 
d="M65 798v-115q-7 3 -12 9q-3 6 -3 14v25q0 -122 20 -265l41 -301q21 -152 21 -264l-2 -14q0 -47 33 -70q28 -17 81 -17h36q19 3 29 4l109 9q27 0 51 -6l13 106q10 84 30 134q2 10 5.5 34.5t3.5 48.5q0 32 7.5 54t22.5 37q4 -29 9 -60t18.5 -104t21.5 -138t8 -112h323
q24 142 45 327l34 323l36 341l2 -21q0 -20 -12 -56q-4 -12 -8 -25.5t-6 -22.5q-14 26 -14 63t14 62q-13 -20 -19 -58q-12 -97 -14 -101l-39 58q3 -9 -9 -24l-6 6q-7 7 -4 18l-1 -11l1 -22q0 -18 -14 -25q-5 8 -8 20.5t-3 29.5q0 33 11 51q14 -6 14 -24l-14 82h-68l3 -36
l1 -21q0 -16 -1 -23t-7.5 -20t-29.5 -25l-14 10l25 84q0 17 -11 31h-14q-14 -72 -26.5 -155t-22.5 -163q-18 -158 -18 -303l-24 24l8 8q3 4 1 12q-11 0 -22 24q-10 27 -10 54q0 32 13 52h10l-44 404v-39q-21 -16 -29 -16q-6 0 -6 10q0 14 4 27l12 50q0 8 -5 11
q0 -13 -3.5 -20.5t-10.5 -12.5l-10 12v12l-82 9l-9 -159q-10 0 -13 9l-1 20l-1 -9l-9 -10q-12 10 -18.5 28t-6.5 37q0 18 4 37l11 38l8 -12q2 -4 2 -12l1 15q0 14 -11 18q-5 -5 -10 -18l-2 -25v-15q0 -23 -5 -36q-3 -12 -22 -21q-8 4 -10 18l1 30l-24 -34l-10 10l1 15l-1 18
v18q0 18 4 27t20 13h-14q-8 -68 -14.5 -129t-17 -138t-22.5 -144.5t-28 -127.5q0 38 -4 82.5t-13 93.5l-33 199q-17 102 -17 164q-9 -8 -11 -19q0 -7 6.5 -18.5t9.5 -18t4 -11.5q-44 -52 -101 -72q0 13 -21 49q-8 15 -10 27q0 9 7 20l10 -15v58l-20 -24l-12 12q-4 5 -2 12
l-11 2q-13 0 -13 -18l4 -28l10 -47q0 -5 6 -7l12 -1q7 0 6 -16q-3 -17 -7 -21t-15 -6l-17 3q-12 3 -18 0q10 22 10 45q0 28 -9.5 51t-24.5 43zM223 740l15 58zM989 798h-48l9 -43v10v13q0 15 15 20q9 -3 10 -17l-1 -16zM584 789l-14 -34l-10 10v9h-9v-19h9q0 -22 31 -88
l3 -18l14 10l8 -9q4 -3 2 -11l-10 58l-14 -14q-5 6 -8 20l-2 26v20l1 22zM907 755l-34 10q1 -10 3.5 -18.5t7.5 -16.5l8 -14zM676 360l9 48zM305 302l15 58zM329 163h10v82h-10v-82z" />
    <glyph glyph-name="X" unicode="X" horiz-adv-x="729" 
d="M33 800q18 -51 42 -147l39 -172q20 -84 45 -155q-23 -74 -45 -179l-35 -181q-19 -102 -36 -163q-5 9 14 19q20 -12 46 -18t58 -6l43 1l71 4q19 34 30 128t43 138q17 -42 31 -101q30 -147 36 -165h281l-72 290l-17 -56q-9 -32 -27 -50l-24 24l22 98q12 51 12 90
q0 27 -1.5 37t-6.5 27q-3 15 -9.5 31t-16.5 32q23 67 45 154l35 159l36 161h-73l18 -48q6 -16 8 -31q0 -16 -11 -27q-15 14 -15 24q-14 0 -24 5l-14 5q-7 0 -15.5 -7t-23.5 -27l-15 14l3 -13q0 -8 -9 -19l-18 -16q-12 5 -12 15q0 9 14 30l-2 3l-9 -14q-9 11 -23 59
q-11 47 -36 47l-27 -124q-14 -67 -14 -109v-25q0 -13 8 -32q0 -16 -15 -25q-33 20 -51.5 66.5t-18.5 102.5v25l2 15l-1 -16l2 -13q0 -12 -10 -15q-12 7 -19 18.5t-7 25.5l1 14q-3 8 5 15t20 4l2 13q0 14 -12 35l-15 25l3 -23q0 -11 -3 -25.5t-10 -33.5t-10.5 -33t-4.5 -24
l1 -11q-25 6 -25 55l-9 13l-14 -10l-10 10l-10 -10l-14 68l-5 -7q-2 2 -4 4.5t-7 10.5q-6 15 -10 16q-1 -2 -1 -3q-5 -13 -7 -21l-10 9q-3 -3 -3 -12l2 -20l2 -25q0 -23 -7.5 -35.5t-31.5 -23.5l-10 131v-12l1 -17q0 -13 -11 -19zM232 800h-25v-24l10 9q8 -1 11 -13l4 -20
v48zM532 800h-58q5 -13 7 -28v-11q2 -6 17 -19l-1 17q0 11 10 17q8 -3 11 -14l4 -20zM638 742l-14 34l14 -68v34zM149 171l6 -20q5 -13 5 -24v-6l-1 -8l-24 -20zM440 79v73h9v-73h-9zM101 21l14 72zM425 -95l-34 34z" />
    <glyph glyph-name="Y" unicode="Y" horiz-adv-x="663" 
d="M43 739l-13 60zM73 799q0 -8 13 -51q6 -20 6 -33q0 -24 -19 -39l-22 29l145 -721q0 -35 -38 -46q-10 -3 -22.5 -4t-41.5 -1v-132q61 0 104 1t82 2q31 0 60.5 4.5t75.5 14.5q40 12 73 51q28 34 42 80l5 97q0 39 6.5 68.5t18.5 46.5q10 23 10 96t11 78l-21 -21l-9 13
q24 70 39 151l20 153q13 112 22 163h-21l-1 -16v-14l1 -14l-1 -13q0 -7 -8 -15q-15 11 -15 25l3 24q0 11 -9 23q-13 0 -18 -8l-4 -20l2 -29q0 -15 -10 -24l-12 8q-4 3 -9 1l-1 -12l1 -14q0 -18 -13 -25l-17 42l-4 -20q0 -5 -9 -10q-5 4 -7 6l-2 18v12q-7 -2 -12 -6l-17 81
l-15 -1l-16 1q-9 0 -13.5 -3t-6.5 -6l-42 -581q-9 5 -15 18q-5 15 -5 42l-1 38q-3 15 -22 12q0 86 -3 146.5t-11 110.5q-12 94 -36 151l2 -23q0 -13 -11 -16l-15 10l-4 10l3 22q0 10 -5 18l1 -14q0 -12 -10 -16l-12 9l1 -11q0 -12 -10 -19l-42 51l12 -9q0 -23 -12 -34
l-11 13q-9 11 -6 21q0 34 -19.5 47t-52.5 13zM247 799v-30h17v21q-12 12 -17 9zM480 799l21 -60l9 30h-22q-9 3 -9 16zM438 718v72l-22 -102zM306 434l-21 -94zM111 -97l-9 22l9 -51v29zM145 -126q7 -13 17 -13l2 -21q-1 -16 -11 -17h-21q-9 8 -9 14q1 9 10 20z" />
    <glyph glyph-name="Z" unicode="Z" horiz-adv-x="566" 
d="M141 796h-91v-197l197 -15q-47 -80 -78 -211l-52 -227l-24 58v-67q-6 -3 -11 1l-8 8q3 -8 -1 -16l-7 -15l4 -4q6 -5 13 -8l-1 -13l1 -19l1 -19q0 -21 -10 -31q-9 -3 -16 1l-9 9l-2 11q0 12 13 28l-4 -3q-4 -4 -5 -8l-2 -15v-13q0 -19 -23 -19v-212l510 14v58l-5 -22
q0 -9 -10 -12q-5 7 -8 15t-3 16q0 9 21 56q10 23 10 38q0 11 -5 25q-7 0 -7 -20v-25q0 -23 -3 -37t-14 -24l-15 115l-9 -101q-12 3 -16.5 9.5t-6.5 12.5t-2 17l1 20v18l-10 -9l-34 33l-15 1l-31 -1l-29 3q-12 3 -21 12q27 87 80 227q17 45 51 139q22 61 32 90q40 124 49 213
l-24 -48q-15 6 -15 24l-9 -15l-24 82l-4 22q0 16 17 25l44 11l15 -34v34l-82 14l-1 -21v-21l1 -20q0 -19 -2.5 -30.5t-11.5 -22.5q-36 0 -36 24q0 7 13 42l7 30q0 11 -4 19v-13l1 -14l-3 -12l-12 -9q-8 6 -10 18l1 20l-1 10h-33l-1 -11l1 -16l-3 -12l-12 -9l-24 48l25 -79
q0 -14 -10 -27l-17 15q-8 8 -8 19l-13 49q-6 27 -26 27q-10 0 -18 -4l2 -12q0 -13 -10 -24l-16 -22l-10 10l-1 16q0 14 11 18l-22 8l-36 6q19 -6 26.5 -15t9.5 -23q0 -16 -18.5 -54.5t-18.5 -57.5l1 -13q-5 6 -8 19l-2 24v25q0 17 -2.5 27.5t-11.5 19.5l1 -22l1 -23l-2 -19
q0 -9 -10 -18l-23 80q0 19 14 36l9 -10v24zM83 748l-9 24l9 -72v48zM108 690h9v82h-9v-82zM266 772q-15 -21 -41 -77l-2 -14l10 9l14 -24q3 -6 19 -9v115zM396 -27q9 4 19 4q25 0 34 -34q5 -18 5 -65v-20q-1 -10 -7 -10q-16 0 -42.5 35.5t-26.5 61.5q0 22 18 28zM339 -152h9
v58h-9v-58z" />
    <glyph glyph-name="a" unicode="a" horiz-adv-x="735" 
d="M362 791l-33 9q-38 0 -47 -23l-9 -56l-16 38q-7 23 -30 18l14 -10l-24 -23l-23 23q-18 -6 -34 -26q-13 -19 -22 -44l-9 13q-3 4 0 11q-19 -9 -46 -52l-1 -4l14 14l9 -14l3 -13q0 -9 -9 -18l-26 -26l-14 14l14 -14q-21 -27 -27 -65t-6 -91v-35l266 -9v177q7 19 20.5 34.5
t34.5 15.5l15 -3q17 -14 25.5 -37t8.5 -49l-2 -47l-2 -35l3 -33q-20 -12 -33 -22.5t-18 -20t-19 -60.5q-22 0 -22 22q0 24 -11 25q-11 -11 -83 -36q-56 -18 -56 -59v-16q3 -8 4 -11q-10 7 -10 26l1 28l-1 12l-88 -66q-16 -38 -27.5 -96t-11.5 -108q0 -58 11.5 -104.5
t36.5 -83.5l75 -42q44 -19 84 -19q7 0 18.5 1t23.5 4q15 7 31 13q23 10 39 19q41 20 56 57q0 -44 23 -60t64 -16l51 3l94 8q32 0 48 -5q-3 6 -5 22l6 37q6 26 6 39q0 15 -6.5 28t-23.5 23q19 26 28 69q4 21 6 43t2 51l-3 80l-2 50v16l2 13l-24 -32l-9 9l-2 11v9q0 18 5 29.5
t8 16.5q8 15 22 37l-10 -9q-11 -3 -23 9q14 15 18 42q12 73 15 79q0 50 -7 87t-25 73q-36 79 -113 111q-6 5 -17 8l-16 3q-8 0 -15.5 -5.5t-7.5 -19.5l-24 38q-3 -20 -8 -27q-2 -7 -15 -20l-19 23l19 24h-65l7 -8q7 -9 13 -11q8 0 12 19q27 -20 27 -57q0 -19 -8 -33t-28 -22
q-14 5 -14 24l1 22l-1 10l1 -17q0 -15 -6 -15l-18 9l-11 5l-6 -3l-2 -17l-25 44q-9 14 -10 26q0 13 11 24l24 -38v38h9zM250 721l-9 32zM488 753l-37 -42l37 33l4 -16q0 -13 -13 -42q-4 -10 -8 -23.5t-6 -21.5q11 8 26 35q11 24 30 35q11 -9 11 -20q0 -9 -8 -22l-7 -21
q0 -8 4 -16l33 112l-10 -9q-17 7 -14 18l-32 -18q-5 0 -10 9v9zM185 665v79h9v-79h-9zM227 665l-10 56zM376 295h10v80h-10v-80zM194 309l14 -93l19 37q8 -5 11 -14t3 -23q1 4 1 12q0 21 -7 43l-18 24l-9 -9q-10 5 -13 9t-1 14zM306 309l18 -39q0 -17 5 -40l-11 24
q-12 26 -14 44zM105 174l-9 9q-14 -6 -14 -24l1 -20l-1 -12q-10 8 -17 18q-5 10 -5 23q0 23 18 56l18 29l9 19v-98zM138 230l14 33l-23 -10zM395 263l-2 -15v-24l2 -52l3 -70q0 -41 -8.5 -75t-27.5 -54q-9 -3 -18 6l-15 13l-9 -10l1 18l-1 37l-1 45q0 60 13 102q18 55 63 79
zM152 -27l-2 -27q1 -15 11 -20l10 10l14 -42q-1 16 -7 16l-15 -3q-8 1 -11 10h-14v56h14zM105 -41l-9 -23q2 3 7 5q10 0 10 -40l2 2zM320 -50q11 -29 11 -52t-11 -51v11q0 12 -14 12l-9 -9q-13 -1 -13 14q0 16 11.5 39.5t24.5 35.5z" />
    <glyph glyph-name="b" unicode="b" horiz-adv-x="626" 
d="M277 800h-248q5 -20 8 -44.5t3 -52.5l-3 -69l-7 -114v-39q3 -15 5.5 -31t13.5 -47q-11 -61 -19 -146q0 -33 -2.5 -92t-2.5 -75l2 -157l2 -111l40 -6l44 -1h21h22q10 2 14 2l95 5q0 17 3 27t16 20l20 -20l8 8l47 -47q13 -4 29.5 -7t32.5 -3q39 0 75 15t63 42q24 58 33 138
q4 34 7 80.5t3 87.5q0 16 -1 54t-1 60l-5 185l-16 -20l-20 20l-8 23l-4 28q0 30 20 43q10 -3 14 -9t6 -23l-1 -21l1 -15q2 -5 8 -10q0 22 -3 37.5t-8 29.5q-10 31 -36 59l2 -23q0 -11 -10 -17q-9 7 -10 22l2 25l-3 -21l1 -21q0 -14 2 -21q0 -16 -6 -26t-26 -13q-8 9 -14 26
l-4 33q0 30 11 51q-12 10 -22.5 16t-18.5 6q-15 0 -32 -39q-13 -37 -28 -38q-13 0 -33 20l12 47q-24 -3 -31 -10t-9 -24l2 -29q0 -17 -9 -31q-12 5 -12 16v19l2 -25q0 -13 -10 -22q-10 28 -24 50q-9 12 -15 44q1 -4 -1 -8l-7 -7l-8 7l-1 27l-2 20q0 24 19 28q12 -5 12 -22
v-25v161zM60 792l-3 -11l-2 -27q0 -17 2 -22q3 -6 11.5 1.5t8.5 16.5q0 7 -7.5 20t-9.5 22zM96 792l39 -78zM135 792q9 -31 33 -71q24 -35 42 -43l-3 23q0 13 4 32l9 47q0 9 -2 12q-14 -10 -17 -44q0 -31 -11 -42l-8 17l-1 18l1 18l1 20l-1 13l-1 -12l1 -11q0 -10 -12 -16
l-11 26q-3 4 -24 13zM473 619l-20 -35l-15 27l-12 -39l19 20q10 0 10 -22l-2 2q9 6 15 16.5t6 20.5zM351 556v55l-8 -66zM332 490l11 -527q-19 -8 -25 -13q-6 -8 -6 -19q2 -6 2 -16l1 -18l-3 -20q-16 36 -22 80.5t-6 97.5l1 66l1 66l-2 60l-7 54q-9 -5 -11 -13l-1 -13v-16
v-13q-8 8 -8 24l1 28l-1 11q-2 -6 8 -16q12 12 15.5 27.5t3.5 40.5l-1 26v26q0 31 10.5 52.5t38.5 24.5z" />
    <glyph glyph-name="c" unicode="c" horiz-adv-x="737" 
d="M339 734h14v66h-14v-66zM273 767l-14 14l-62 -24q-16 -6 -13 -13l8 -9q3 -2 1 -10q-6 -9 -14 -12l-19 -2q12 -18 14 -33q0 -13 -14 -33l-18 30q-4 8 -6 15t-2 17l3 18q-23 -15 -23 -28q0 -6 17.5 -27.5t14.5 -38.5l-20 -10l-20 -5q-8 0 -16 6v56l-23 -56q0 -6 4 -10
l-2 25q0 14 11 17q0 -6 2 -13.5t9 -21.5q12 -24 12 -34q0 -17 -23 -29l-16 -1q-12 0 -16 10l-10 -60l-3 -66q0 -49 3 -90q0 -6 9.5 -98.5t9.5 -135.5q-9 7 -10 23l1 33h-15v-89h15q0 -85 43 -158.5t119 -98.5t150 -25t140 22t120 67q48 55 66 162l14 111l-9 -14
q0 16 -20 25.5t-20 19.5q0 7 2 11h-66l-9 -146q-5 7 -11 26l-3 37l1 29l-1 12l-24 -57q-8 10 -10 27q0 12 6 27l19 45h-113l23 -10q-13 -15 -19 -38l-4 -50v-22l1 -20q0 -13 -0.5 -27t-7.5 -32q-11 -30 -40 -45l-33 14q-20 9 -23 28l-10 540q3 34 16.5 60.5t37.5 26.5
q12 0 26 -7l19 -202l272 9l3 21q0 27 -26 54q-23 28 -25 36q0 12 25 25q-3 5 -5 21l2 28q0 16 -3.5 24.5t-17.5 15.5v-79h-9l-8 11q-4 5 -2 12q-14 -6 -23 -6q-15 0 -19.5 11t-5.5 17t-1 22l2 36l2 33q0 9 -2 14h10l-13 13q-7 7 -20 6l-1 -17v-12l1 -26l1 -24l-3 -26
q-2 -14 -7 -27l-25 52q-11 30 -11 55q0 24 12 48l8 -6l4 -17l-1 -7l-2 21q-6 0 -24 12.5t-29 12.5l-12 -2q-5 -11 -10 -32l-2 -38v-18q0 -10 -2 -22q0 -12 -10 -26q-13 -3 -18 2l-4 18l1 19q0 9 -6 9l-15 -6l1 13l-2 26l-2 25q0 27 22 40q12 -3 12 -13q0 -6 -4 -14l-7 -12
l13 6l9 33h-33q-12 4 -13 -9q0 -12 -10 -15l-9 14l-47 -103q-9 5 -11 22l1 11q0 -14 -1.5 -19.5t-12.5 -13.5q-10 0 -10 14q0 7 1 12l-10 -17l-14 14q-2 11 8 28q6 9 6 15l-47 -66l-9 9l-1 17q0 15 10 21l-32 -14q-19 10 -19 21q0 6 7 17l12 18l32 -23l-1 15q0 8 1.5 12.5
t9.5 9.5l14 -14q9 -3 18 6l15 18l-11 2q-5 0 -11 -11q-3 -11 -11 -15zM508 687h14v47h-14v-47zM184 387l5 -22q5 -14 5 -23l-1 -11l4 -9q-10 -3 -16 -3l-15 -4q-6 -6 -6 -17l15 -10l-1 -3q-5 0 -9.5 6.5t-4.5 15.5l-16 -1q-4 0 -4 4l8 15q-1 1 -2 6q20 -9 25 -9q6 0 6 6
l-3 15l-3 19q0 17 13 25zM296 387v-47q-20 11 -20 24q0 9 6 23h14zM484 91l38 103l-24 -46l-14 14l14 -14q0 -14 -1.5 -19.5t-12.5 -13.5l-9 12q-3 4 0 11zM634 194l22 -54l21 -49q0 21 -31 65q-12 16 -12 38zM465 162q1 1 2 1h3l2 -7q0 -22 -16 -66l-5 -8l1 17l-1 26
q0 12 2 20t12 17zM442 16l-14 -80l-19 24l15 -36l18 -35q0 17 -1.5 22.5t-12.5 10.5l23 24q-10 8 -10 26l1 16l1 18z" />
    <glyph glyph-name="d" unicode="d" horiz-adv-x="630" 
d="M454 800h-106l-8 -220l-33 21l-34 18l1 -12q0 -12 -9 -15q-10 0 -10 21l-17 -21l-12 8v-20l27 2q14 0 20 -10l-19 -19h-29l-49 3q-17 3 -17 16l-8 -8l-16 26l-5 19l2 10q-30 3 -35.5 -32.5t-19.5 -41.5l-12 8q-2 9 5 20l7 19q-26 -36 -36 -76q-4 -18 -7 -40.5t-3 -45.5
l3 -66l9 -111l-1 -29q0 -16 -4 -29l-8 11v9q6 -15 9 -37l3 -42v-21v-17q-2 -12 -2 -17l-7 -98q0 -62 18 -101q23 -48 81 -72q30 -10 58 -10q39 0 75 15q36 13 75 42q8 -4 10 -18l-2 -21h247v310l-27 -47v12l-1 24l-4 42q0 20 4.5 34t15.5 30l12 -75l1 97l1 102q0 44 -1 76.5
t-2 62.5q0 22 -3 52t-8 62l12 -8v67q-7 -3 -10 -36q0 -32 -17 -51l-6 21l-2 21q0 20 28 86q14 34 14 58q0 21 -7 42h-121l7 -47v13v14l1 11q4 7 7 9q0 -6 3 -19.5t9.5 -36.5t6.5 -35q0 -16 -4.5 -25.5t-14.5 -17.5q-11 0 -14.5 5.5t-3.5 15.5v15q0 13 -9 19v-27
q-25 6 -34 37l-13 57zM528 706v82l-7 -94zM576 686l7 102zM407 733l-12 47l12 -59v12zM199 611l19 28l-27 -39zM151 627q6 -4 7 -7l3 -13l-1 -5l-1 17l11 7q3 3 9 1h-28zM293 600v-50q3 -19 4 -25.5t4 -19.5v21l1 19v11v8q-2 5 -2 7q0 9 -7 29zM320 564l25 -263
q0 -32 2.5 -87t2.5 -68q0 -86 -10 -186q-8 -9 -19 -9l-28 1q-10 13 -10 41t-10 41l-19 12q19 41 25 83t6 105q0 12 -1 37.5t-1 38.5l-1 74l3 74q19 22 28 40t9 42zM293 -123h8v55h-8v-55z" />
    <glyph glyph-name="e" unicode="e" 
d="M285 660l-11 36l-4 37q0 23 5.5 37.5t19.5 26.5q-32 0 -74 -21l-16 -17l15 14q10 -17 10 -37q0 -17 -6 -37l-19 -62q-36 11 -48 55l-8 48q-54 -42 -82 -106q-15 -37 -23 -91.5t-8 -129.5v-59q-2 -16 8 -34q24 -44 25 -53q0 -12 -10 -26l-9 14v-23q-6 -9 -9 -22l-3 -19
q0 -9 5 -25t17.5 -47t12.5 -51l-1 -11l-3 -18q-8 8 -14 23l-5 24q9 -80 19 -111q17 -58 56 -96q44 -38 111 -58.5t136 -20.5q101 0 196 36q70 39 108.5 106t38.5 141l-1 22q0 68 -34 95q-26 20 -84 20l-64 -3l-46 -2l-41 3l1 -48l1 -50v-40q-3 -15 -5 -31.5t-11 -42.5
q-40 -32 -40 -77q0 -46 -16 -69q-11 0 -11 14q0 7 1 11v-6l-23 -19q-14 22 -14 55t14 58l23 -14q-21 30 -30 68q-4 20 -6 39.5t-2 46.5q0 20 1 42.5t4 44.5l10 88h372v79q0 134 -16 201q-24 105 -97 172l-10 -127q-13 3 -13 33l-10 -9q-12 6 -12 21l2 26l-14 -15
q-12 -1 -18.5 14.5t-14.5 18.5l-9 -9l-80 89q9 14 23 14q10 0 27 -11q15 -8 24 -10q8 0 15 7q8 -5 23 -38q9 -21 34 -18l1 10q0 18 -22 28l-36 18l-76 14q-28 0 -37 -23q-26 27 -45 27q-24 0 -42 -52zM332 693l10 89zM398 693l-23 80zM196 669h9v48h-9v-48zM634 589l-10 80
l-23 -98l23 33q12 -11 12 -24l-9 -34l-3 -22l33 113zM351 627h47q4 -10 6.5 -19.5t2.5 -22.5l3 -48q-1 -11 -1.5 -23.5t-0.5 -18.5v-12v-40h-66zM657 514l24 66zM408 354l-43 57zM408 411l33 -39l23 -51q-18 15 -33.5 39t-22.5 51zM704 119l-70 80l37 -57l10 10zM544 185
l-9 -80zM601 185v-24l14 14l-4 -17q0 -15 11 -27l26 -26zM83 119l-24 42z" />
    <glyph glyph-name="f" unicode="f" horiz-adv-x="390" 
d="M169 700l1 -13q0 -12 -9 -15q-18 12 -18 39l9 51q3 14 1 21l-48 -35v-17q0 -9 -3 -28t-17 -31l-12 8q-1 3 -1 10q0 9 5 26l8 12q-12 -9 -16 -25l-3 -36v-18q0 -26 -5 -40t-23 -25q-5 -2 -11 1l-9 7v-123l13 1q12 0 19.5 -4t14.5 -17v-649h239l20 669h36l12 123h-60
q11 -9 11 -22q0 -10 -11 -31l-8 -22q-18 23 -18 48q0 17 10 27l-19 3q-6 2 -12 9l-2 15q0 22 16 45l17 24q10 -10 8 -16l68 8v115h-95l-28 -95q-6 7 -9 14l-2 15q0 13 9 37l10 29l-23 5q-26 0 -31.5 -50.5t-24.5 -50.5zM332 783l-8 -47l-20 39l-7 -24l-2 -26l1 -25l16 36
q6 -2 9 -10l3 -18zM344 688l8 87zM217 700l12 67zM133 756l-22 -74q0 -14 2 -22q9 14 14 36.5t5.5 37t0.5 22.5zM332 529h12v55h-12v-55zM65 529l-27 47z" />
    <glyph glyph-name="g" unicode="g" horiz-adv-x="648" 
d="M157 798q-10 -4 -35 -27q-17 -16 -34 -13l-15 -23q-9 -12 -9 -17q0 -8 24 -17l9 -32l4 -29q0 -19 -5 -29q-3 -11 -16 -21q-12 5 -12 29v10l-9 -10q-10 13 -10 34l1 19l1 16q0 -61 -7 -137q0 -69 -5 -118.5t-11 -101.5q0 -46 1.5 -64.5t6.5 -46.5t12.5 -54t19.5 -53
q3 -3 18 -5.5t15 -12.5l-1 -10q57 -42 128 -42q27 0 56 9q11 1 59 30q18 11 30 11v-31v-13q0 -49 -5 -65q-9 -38 -35 -38l12 -8q-21 -3 -21 -15l4 -22l-3 -12q8 8 14.5 32.5t13.5 32.5l8 -8q12 -12 12 -26q0 -9 -9 -30q-4 -10 -7.5 -21t-3.5 -13l-8 13v-29l-20 16
q0 -19 -13 -28q-10 10 -15 27l-4 34l2 33l1 32l1 13q0 22 -13 30.5t-36 8.5l-39 -3l-39 -3l-21 3v-21q0 -13 -12 -16q-9 3 -9 14l1 23h-21v-17l1 -21q0 -18 -9 -27q-12 9 -12 31v34h-49v-28l20 12q9 -9 9 -21q0 -10 -5 -19q-12 -24 -12 -29q15 -37 46.5 -63.5t67.5 -34.5
q16 -4 40.5 -8t36.5 -6q42 -6 76 -6q87 0 153 27q74 30 127 99q14 123 16 145.5t2 71.5q0 37 3 115t3 121l-2 234l-2 173h-20q12 -32 12 -79q0 -26 -4 -39q-4 4 -11 21q-4 13 -9 20q-4 -3 -7 -11l-2 -15v-13q0 -12 -3 -18.5t-17 -12.5l-29 78q0 17 13 33q12 5 28 -10
q9 -8 17 -11l-9 49q-5 -3 -11 -3l-14 2l-15 2q-8 0 -17 -6q-6 -6 -12 -23q-5 -3 -16 8q9 6 9 18l-1 10l-15 2q-23 0 -32 -48q-6 -48 -22 -60q-9 12 -9 30q0 13 13 46l8 30l-13 2q-11 0 -16 -6q-3 -6 -3 -20v-19l-1 -18q-4 -6 -8 -8q-5 5 -8 21l-2 18v15q1 6 2 7l-21 -126
q-11 0 -11 21l-1 -5l-8 -8l-17 50q0 13 17 19q-11 -6 -20 21q-6 28 -29 28l-1 -13v-16l1 -15l-1 -15q-1 -2 -2 -4.5t-5 -5.5q-6 9 -11.5 50t-33.5 41l-16 -2q3 -18 -7 -38l-3 -6q-4 -7 -11 -17l-8 13q-7 -6 -18 -8q-12 0 -18.5 27t-12.5 29zM149 778l-32 -28q22 0 22 -28
q0 -27 10 -34v90zM325 652q7 -11 32 -11q27 -3 27 -17l-2 -13q3 6 0 9l-9 11h-12l-1 -71l-1 -76l3 -105l11 -90q10 3 10 15l-1 13l-16 -54q-15 -54 -15 -90v-14l2 -17l1 35l-2 12q-3 7 -7 10q-17 0 -27 -19l-14 -30h8v-37h-8q3 6 0 9l-8 12h-20q6 20 10.5 44t4.5 44
q4 44 4 112v73q0 78 6 139t24 106zM402 521l-20 21l20 -37v16zM410 199l-28 33l28 -49v16zM394 134l-21 36l21 -69v33zM422 101l-12 49zM276 101l8 12l-8 -40v28zM117 -54h12v41h-12v-41zM206 -62l-8 28l8 -48v20zM80 -82h8v36h-8v-36zM263 -111h13v49h-13v-49z" />
    <glyph glyph-name="h" unicode="h" horiz-adv-x="640" 
d="M38 800v-1000h238v246l-28 12q4 12 8.5 23t11.5 25q9 -6 9 -19l-1 -13l3 77l-2 92l-2 68q0 28 1 53t5.5 56t22.5 74l10 1q21 0 38 -20l11 -675h239l7 123l-7 -8l-12 8v15l3 25q3 9 16 16q0 29 -2.5 94t-2.5 90l-10 219l-4 160l1 -24q0 -10 -9 -16q-18 9 -19 25l4 21l3 22
l-22 24q-8 9 -22 16l-21 -32q-11 -11 -26 -8q-10 7 -19.5 22.5t-9.5 26.5q1 5 2 6h7l-12 -47q-18 0 -33 22t-23 25l-2 -13h4l9 5q2 -1 4.5 -2t4.5 -5l-1 -14l1 -22q0 -20 -12 -32q-9 3 -9 15l1 13l-8 -8l-20 16l-1 -14l1 -25q0 -15 -1.5 -21.5t-9.5 -15.5l-16 108l-44 -21
q-7 0 -16 9v190l-123 12l1 -13q0 -11 -9 -19q-15 15 -12 20zM50 760l8 28zM145 685l16 95zM268 733l-20 47zM98 768q-9 -3 -11 -12q6 -12 6 -17q0 -6 -15 -6q9 -5 9 -16l-1 -24l-1 13q0 17 11 47zM324 590h-8l8 -28v28zM534 483l-8 95zM494 514h12v48h-12v-48zM268 284h8v40
h-8v-40zM240 -37l28 83zM268 -125h8v40h-8v-40z" />
    <glyph glyph-name="i" unicode="i" horiz-adv-x="286" 
d="M13 798v-123h257l-12 123h-15q0 -5 -6 -13l-6 -7l-5 6q-6 7 -3 14h-20q2 -5 -1 -11l-7 -9l-12 8v-47l-8 10q-3 3 0 9l-27 -75q-28 9 -28 31q0 11 9 31l26 53h-19q-2 -17 -8 -30l-20 -45l-14 11q-7 6 -6 16h-10h-12q-10 0 -13 8l8 12q-6 30 -36 30zM68 798h48h-48z
M250 786l-7 -28q-12 12 -20 12v-31l-1 -8v-4q0 -15 21 -24l-1 18v18q0 28 8 47zM41 731h12v47h-12v-47zM61 731q9 -3 9 -21l-1 -5l-1 18l12 8l6 -8q4 -5 2 -12l3 12q0 14 -16 14q-6 0 -14 -6zM13 616l8 -815l60 -1l62 -1h24h24q10 2 14 2q26 0 53 8l12 106l-39 -59l-8 12
q25 41 38 99q5 25 8 55.5t3 63.5q0 50 -7 127l-7 110l-8 -8l-5 33q0 25 7 56q18 80 18 102v16q0 10 -2 19t-10 27l-15 -19l-15 3q-12 1 -17 8l21 37q12 20 26 19h-55l1 -28q0 -12 -9 -20q-12 6 -12 22v26h-170zM128 596l15 -39q14 -21 32 -24q3 0 4.5 1.5l2.5 2.5
q0 19 -41 55zM100 549l-12 31l12 -47v16zM223 533v16h-12l-8 -28l8 12h12z" />
    <glyph glyph-name="j" unicode="j" horiz-adv-x="312" 
d="M93 799h-18l18 -42v42zM110 799v-103h-28l-7 10v8h-7v-25h7l16 2l18 -1l18 -1l21 3q8 3 12 15l7 -11v-7h129l-8 110l1 -20q0 -9 -8 -12q-6 -1 -11 1l-7 6v7l8 11l-75 7l8 -8q8 -6 16 -8q7 0 8 16q13 -10 13 -26q0 -9 -13 -47l-7 -30q0 14 -14 34q-11 20 -13 33l2 11v-19
q0 -12 -11 -16q-5 6 -7 22v31l-1 -19v-16l1 -14q0 -17 -1.5 -26t-9.5 -21l-14 29q0 9 -9 33l-8 31q0 13 17 10h-43zM253 696l18 43q9 -1 10 -14v-18h7v25h-7q-9 9 -14 9t-10 -12zM75 639q-8 -8 -8 -19q0 -7 10 -28l5 -16q0 -9 -14 -15l1 -232l4 -219l2 -197l-18 -18l-18 18
v-18h11l1 -19q0 -11 -3.5 -19.5t-15.5 -11.5q-9 9 -9 30l1 18l1 20h-11v-111h11h33l34 -1q78 0 115.5 14.5t63.5 43.5q13 63 18 106.5t5 74.5q0 38 3.5 115t3.5 104l-1 143l-4 237h-221zM196 586v42l-18 -60zM271 586h10v42h-10v-42zM117 579l-24 42zM253 554h10v67h-10v-67
zM210 41l-7 42zM178 73q8 -8 8 -24l-1 -33l1 19q-1 10 -8 13q-11 -6 -11 -18h-7zM239 73q7 -3 7 -11v-21q1 11 -9 11q-10 1 -9 7z" />
    <glyph glyph-name="k" unicode="k" horiz-adv-x="621" 
d="M30 800v-48l8 12l18 -31q9 -12 29 -16l1 -13q0 -11 -9 -19l-8 11v9l-1 -12l1 -14q0 -14 -12 -22q-13 -1 -16 17q0 17 -11 23l8 -897l238 12l-1 55l-1 55v39t2.5 38.5t11.5 58.5q17 -38 37 -128t38 -130l230 12q-9 59 -45 160l-57 168q-14 51 -21 91t-7 79q0 54 15 105
t48 99l6 15l3 15q0 18 -21 18q0 -23 -11 -38l-45 -37q-21 21 -21 61l3 35l10 38l16 -19v19h-36v-31v-11q0 -12 -3.5 -18.5t-15.5 -6.5q-5 5 -8 17l-2 14l1 18l1 18l-1 -13l1 -22q0 -20 -12 -32l-8 8v-56h-12q0 13 -9 39l-8 36q0 14 9 29l8 -8v19q-13 -12 -18.5 -34t-5.5 -50
v-37v-29q-3 -17 -4.5 -25t-6 -16.5t-13.5 -18.5l-16 56l-1 -16l1 -28q0 -13 -2 -21q0 -9 -10 -19q-14 29 -22 63q-3 19 -4 32t-1 41l3 66l7 114v18v15q-2 10 -2 15q0 23 -8 45l-96 8q8 -8 10 -24q0 -13 -7.5 -25t-21.5 -26q0 23 -16 28t-17 15q0 11 5 24l1 -13q0 -12 -9 -15
l-20 36l-3 -10q0 -10 14 -21l17 -17l-8 -8l36 -19q-9 -9 -20 -8v-32q-10 -10 -16 -8l-14 12q-7 9 -6 16q6 12 20 12q-24 3 -33.5 39.5t-26.5 43.5l15 -28q6 -11 6 -20q0 -8 -9 -19q-16 12 -30 33t-9 34zM228 752l12 28zM553 610l-19 11l11 -39zM335 494h8v40h-8v-40z" />
    <glyph glyph-name="l" unicode="l" horiz-adv-x="283" 
d="M13 799v-19q11 2 17 -1q5 -1 23 -19l-20 -20l-7 -1l-13 13v-951l63 -1l63 -1h25h25q11 2 15 2q27 0 59 8v721l-20 20q0 17 12 88q6 33 6 53l-3 26q-1 12 -7 23q12 -6 12 -20h8v79h-8l-1 -12l1 -14q0 -15 -12 -21q-9 3 -9 15l1 13l-2 -16q0 -11 10 -24l-56 -8
q-15 6 -24 34l-4 22l-11 -8q-9 12 -25 16l-38 4l-32 -1q-20 0 -31 -2zM108 788l-8 -56l8 8q6 -2 9 -10l3 -18l-1 14l1 25q0 15 -2 21q-1 9 -10 16zM140 788l-2 -11v-9q0 -38 29 -64q4 6 14 7l13 -2l12 -2q8 0 10 15l-1 10q0 -15 -2 -20q-6 -6 -10 -8q-5 8 -30 31
q-37 34 -33 53zM45 704l8 36zM72 550q0 -7 5.5 -17.5t2.5 -18.5l-20 -20z" />
    <glyph glyph-name="m" unicode="m" horiz-adv-x="1180" 
d="M358 706l-10 15l-2 24l1 21l1 21l-43 1l-38 1h-19.5t-27.5 -3.5t-44 -12.5l24 -4l24 3l21 3q11 0 16 -8q6 -6 6 -28l6 6q7 7 18 4l1 -14q0 -22 -9 -57l-16 -63l-14 91l1 -16q0 -14 -11 -17l-9 9l-3 26q0 14 12 22l-13 -12q-3 -5 -5 -19l3 -23l3 -24q0 -15 -12 -27
q-3 -2 -9 -2q-15 0 -31 20l-3 6l-14 -15q-11 11 -32 55q-15 31 -25 27l-10 -10q-12 9 -12 24q0 8 9 29.5t3 27.5v-13l1 -14l-3 -12l-12 -9l-19 48l-3 -13q0 -7 4 -14l18 -21q-14 -74 -17 -98q-8 -54 -8 -99q0 -31 -3 -102t-3 -112l3 -196l9 -332l286 14l-2 31v27l1 64v30.5
t2 34.5q0 63 -6 90t-19 43q6 16 9.5 30.5t7.5 34.5q5 35 5 76l-3 79l-9 134v25t2 28q0 13 4 29t8 31q6 15 23 21l34 12q21 -21 31 -50t10 -70l-3 -60l-9 -101v-19t2 -20q0 -15 12 -42q18 0 23 -1.5t11 -12.5l-19 -19l-15 9v-448l286 14q0 25 -2 89t-2 77q0 30 -4 91t-4 92
l-4 165q0 45 1 85t5.5 91t19.5 130l-43 -66q-4 6 -8 13.5t-9 20.5q-1 4 -2.5 14t-2.5 18l6 48q6 33 6 57q-26 23 -65 42t-68 19l-19 -3q9 -3 10 -13q0 -7 -9 -19l-11 -16l-9 14l-15 -14l-9 14l-1 17q0 11 10 17q-42 0 -84 -27q-35 -23 -63 -64zM858 797l-81 -47
q-26 -21 -26 -47q0 -16 7 -30l1 13l-1 25q0 19 10 28q11 -7 16.5 -20.5t5.5 -29.5l-1 -32q0 -20 2 -25q6 -21 34 -31l14 -801l272 14q0 14 4 27l11 48q0 23 -24 40l13 63l5 35q0 18 -9 26q3 48 5 85.5t2 81.5l7 184q0 92 -9.5 157t-37.5 112l-10 -15l-14 15q0 5 -12 24
t-12 29q0 14 24 23l33 -33l-57 57l-10 -91l-8 10q-3 6 -1 14l3 28q0 39 -36 54q-27 10 -79 10l-21 -1h-20zM939 787l-23 -24l-10 10l10 -81l3 23q2 10 11 15l8 -12q3 -5 1 -12v81zM553 773l-24 -100l-11 -2q-11 0 -11 18q-3 19 -11 27q0 21 28 27q29 9 29 30zM882 773
l-24 -34l-8 10q-3 6 -1 14q-9 -5 -15 -16q-3 -8 -5 -26q0 -23 8 -47q4 -12 10 -21q1 -1 2 -4l9 9l15 -9l-1 15v13q0 12 1 27t4 34zM963 692h10v81h-10v-81zM620 763h24l-1 -16q1 -14 10 -17l15 9q-10 -6 -12.5 -12.5t-2.5 -18.5l1 -22l-1 -13l1 13q-1 13 -10 20
q-12 -8 -12 -22l2 -26l-1 25l-1 24l2 25q4 11 10 17zM415 749q10 3 19 -6l14 -13v-24q-6 3 -12 -3l-12 -11q3 -23 10 -23h15l-10 -20zM801 749l14 -67zM176 730q13 -1 19 -14h15v-34h-15l1 17q-1 14 -10 17l-10 -10v24zM358 649l9 57zM496 158l-14 81z" />
    <glyph glyph-name="n" unicode="n" horiz-adv-x="762" 
d="M511 800l-2 -20l1 -19l1 -20q0 -16 -5 -26q-3 -9 -19 -16q-20 6 -31 41.5t-18 40.5q-33 -15 -54.5 -42.5t-21.5 -63.5l-15 10l-10 -10q-20 0 -22 10l5 15q0 8 -16 9l-1 20l-1 13q0 15 3.5 23.5t17.5 15.5q15 -9 15 -28l-1 -30l1 12l-1 21q0 15 10 25h-82v-15l15 15
q9 0 24 -15l-1 -15l1 -22q0 -21 -15 -30l-9 11q-3 6 0 13v-11q0 -7 -1.5 -12.5t-13.5 -14.5q-21 29 -21 70v12l2 14l1 -16q0 -25 -9 -52l-16 -48l-14 116l-1 -13l1 -20l1 -12q0 -16 -3.5 -23.5t-17.5 -13.5l-14 10l1 13l-1 25q0 14 2.5 20.5t11.5 13.5h-24v-14l1 -14
q0 -14 -15 -20q-8 3 -10 18l1 20l-1 10h-48l15 -15l-1 -15l1 -22q0 -21 -15 -30l1 13q0 17 -20 23q-18 3 -19 19q0 14 5 27h-24l24 -24l-1 -14l1 -15q0 -15 -10 -19l-14 14l6 -27l2 -31l-3 -59l-2 -42q0 -23 1.5 -35t9.5 -27h-14q15 -9 26.5 -31t11.5 -51h-14q-9 5 -11 21
l1 13v-19q0 -19 3.5 -30t20.5 -18l-1 -11l1 -20q0 -19 -14 -27l-10 14q-7 -37 -10 -61t-3 -58l-3 -164l1 -133l1 -127h302v24l-14 -14q-9 -5 -19 14l4 41q4 22 29 26v678l34 58l12 2q9 0 20 -7l26 -14l-2 -19q0 -22 18 -51q39 -60 39 -77q0 -12 -7 -26l-39 57v-692h289v817
l-43 10q5 7 14 50l5 8l-10 -10q-13 2 -33.5 -16t-29.5 -18t-18 10l14 -10l-24 -24q-17 6 -21 13l-3 13l6 20q6 14 6 23q0 11 -12 23l2 -15q0 -15 -10 -34l-16 -33l-10 14q-13 28 -13 63q0 23 5.5 42t17.5 35q16 0 25.5 -23t12.5 -25v57q-12 9 -27 9q-12 0 -29 -6t-25 -3v10z
M612 781v-58l38 43l19 -57l5 23q0 22 -30 36zM429 665l-10 92zM660 608h9v33h-9v-33z" />
    <glyph glyph-name="o" unicode="o" horiz-adv-x="738" 
d="M254 800l-38 -14q-30 -10 -39 -57q-12 -64 -18 -75q-10 13 -10 39l1 23l1 22l-1 15l-57 -43q-31 -42 -45 -87q-13 -47 -13 -93q0 -26 12 -131q6 -51 6 -83q0 -39 -7 -73h-9l-1 -54l-4 -95q0 -37 4 -69t13 -57q21 -66 77 -108q56 -24 128 -42t136 -18q56 0 97 11
q44 9 83 35q74 51 106 153q24 77 24 195l-4 110l-3 109v39q0 71 -6 115q-9 66 -36 105l9 -9q0 -16 -2 -22q0 -5 -7 -11q-13 15 -29 63q-12 45 -52 60l-33 -43l-37 33q20 -22 20 -41q0 -12 -14 -31.5t-16 -31.5l-9 13q-3 4 0 11q-15 -6 -25 -6q-17 0 -22 15l-4 31l2 48l3 32
q0 13 -2 17h-122l-1 -16v-14q0 -15 2 -24t8 -17q11 0 13 9l-8 21q0 8 19 8l-1 13q0 13 10 20q6 0 9 -8l3 -16l2 10q1 5 9 9.5t24 4.5q-3 -17 8 -37q27 -48 29 -59q0 -15 -13 -32l-14 15l-24 -24l-33 66v-57l-24 24q3 -7 -2 -15l-7 -9l-17 17q-9 9 -7 21l-23 -38l-10 15
l-1 12l3 21l8 23q-3 -6 -10 0q-12 14 -12 40zM207 710h9v43h-9v-43zM580 729l-26 -47l-17 -52q11 12 20 32zM613 672l-10 -56l-1 16q0 15 11 22q5 -1 10 -12l4 -17v14zM353 630l13 3q13 -2 21 -17l13 -19l-14 -614q-50 0 -59 12q-4 5 -16 59l12 38q7 21 7 38l-2 19l-8 18
l-24 -47v217l15 -14l13 17q8 9 8 17l-3 13q2 3 2 13v11l-1 41l-1 52q0 15 0.5 28.5t4.5 51.5q8 42 19 63zM150 460q-12 -11 -12 -26q-1 -16 -2 -31l-19 24zM320 257h9v42h-9v-42zM311 177l9 56zM320 -41l57 -113zM410 -163l-33 89z" />
    <glyph glyph-name="p" unicode="p" horiz-adv-x="659" 
d="M451 800l-50 -108q-7 3 -11 10l-2 19l-8 -13q0 9 -6 24l-5 21q0 14 19 26l-58 -37l8 8q6 2 11 -1l10 -7l1 -11q0 -23 -22 -39h-7l-14 8l13 8l-42 -37q-17 12 -17 35q0 12 1.5 18t6.5 22l9 33h-129l8 -71l1 14l-1 21l1 15q1 7 12 13l9 -42l5 -38q0 -18 -6 -33
q-26 7 -40 48q-24 80 -51 80q-13 0 -30 -7q16 -7 13 -21l22 2q12 0 15 -10l-16 -21l-13 13l1 -14l-1 -12q-4 -6 -8 -8q-8 5 -16.5 18.5t-8.5 21.5q0 6 4 10l-8 -8l-13 29l-8 -979h250l8 821l22 21q13 9 29 10l12 -2q11 -44 15.5 -97t4.5 -110l-2 -128l-2 -94q14 0 20 -2
q7 0 14 -7l-4 -15q0 -9 7 -30l4 -18q0 -17 -20 -28q-2 5 -3 7q-4 8 -11 17q-12 19 -7 34l3 -37q0 -12 -0.5 -26.5t-7.5 -36.5q-7 -28 -24 -58q-9 3 -9 15l1 14l-1 -14q0 -12 9 -15l-29 -29l29 -42q51 -39 127 -39q35 0 65 10q52 22 74 79q15 41 15 111l-1 41l-1 40
q-6 39 -6 80q0 21 1 45.5t4 52.5q12 132 12 166q0 65 -12.5 118t-48.5 104q1 -11 2.5 -17t5.5 -17q14 -44 14 -59q0 -14 -2 -19q0 -6 -7 -17q-11 11 -13 21l-16 -21l3 24q0 12 -12 34t-12 55q-2 -25 -3 -34t-5 -23q-2 -14 -4 -21t-9 -22q-10 8 -16 21l-4 26q0 14 6 38
t9.5 39.5t4.5 25.5l-15 -1q-11 0 -14 9l-1 -8v-6l1 -24q0 -11 -2 -17.5t-11 -15.5zM259 658h8v113h-8v-113zM209 671h8v58h-8v-58zM609 608l-8 63zM38 621h13v37h-13v-37z" />
    <glyph glyph-name="q" unicode="q" horiz-adv-x="663" 
d="M202 800l-9 -38q-6 3 -10 11l-2 19h-30q-36 -7 -64 -37.5t-28 -67.5q0 -24 13 -46q9 -26 22 -44q9 -11 9 -27q0 -19 -2 -29l-21 14l-16 15l16 -21l-8 -8q-15 0 -28 19l-14 22l3 -40q1 -13 18 -22v-14l1 -16q0 -12 -9 -21l-13 13l-1 -80v-80q0 -25 1 -64t1 -52
q0 -23 3.5 -44.5t8.5 -43.5l-3 -32q0 -38 12.5 -72.5t40.5 -54.5q21 -27 55.5 -39.5t70.5 -12.5q19 0 36 2t39 8q30 16 48 42t23 59q4 -11 7 -36l2 -45l-1 -30v-31l1 -44q1 -11 2 -16t6 -16l251 8v553l-30 8v19l3 27q3 8 18 17l9 351h-30l1 -15q0 -7 -3 -11.5t-6 -6.5
q-9 0 -14 4l-7 8v8l8 13h-16l-1 -16v-13v-22l1 -20l-3 -35q-2 -14 -10 -28q-6 14 -12 16q-12 0 -17 5v11l8 10q-6 -5 -18 11q-10 18 -10 34q0 15 11 26q12 0 9 -25v4l21 42h-63q0 -17 3.5 -28.5t17.5 -21.5l-1 -16v-19l1 -18l-1 -19q0 -6 -7 -12l-23 68q0 11 2 16l-1 -18
l1 -33q0 -14 -2 -20q0 -6 -7 -13l-12 13q-10 20 -10 48q0 24 5 41t17 32h-83l1 -26l1 -27q0 -19 -1.5 -27.5t-9.5 -19.5q-3 24 -16 27t-13 31q-10 -8 -19 -10q-2 3 -3 5q-5 9 -8 16q-4 20 -20 19q0 -23 16 -49l13 -10l8 9q9 -6 12 -24t9 -27l13 13l8 -573l21 -21l-37 -26
q-17 -12 -34 -12q-12 7 -15 11q-9 8 -6 18l2 -6v-5q0 -8 -7 -16l-16 -15l-6 26l-2 28q0 18 1 27t6 29q2 10 4.5 21.5t9.5 32.5l-21 -21q6 -4 8 -12q0 -6 -6 -15l-11 -15l-10 18l-2 26v18l1 19l-1 11q25 25 34.5 64.5t9.5 97.5l-1 57l-4 96l3 53q34 28 34 48q0 9 -58 58
q-27 21 -27 47l1 10l29 21q-6 9 -25 9l-21 -1l-15 1q-5 2 -10 8zM93 662l-13 59l13 -88v29zM51 612l-8 79zM624 633h9v58h-9v-58zM64 38l-13 42zM323 -20h8v58h-8v-58z" />
    <glyph glyph-name="r" unicode="r" horiz-adv-x="533" 
d="M456 800q-36 -13 -60 -33q-33 -27 -33 -58l1 -11q-6 6 -29 -5q-12 -6 -20 -6q-15 0 -24 21v26q0 14 15 22q9 -6 10 -20l-1 -14v21l1 24q0 19 -10 23v-11q0 -7 -1.5 -13t-13.5 -10q-11 3 -11 20l1 14h-24q1 -5 3 -12.5t12.5 -28t10.5 -36.5t-11 -30l-15 15v-58
q-17 31 -30 71.5t-13 78.5h-25l-1 -11l1 -20q0 -19 -14 -27q-9 8 -11 24l1 34l2 -6v-5q0 -9 -6 -18l-20 -29l-10 10l2 17q0 17 -11.5 25t-29.5 8l-27 -1q-16 0 -26 -2l-15 1v-990h306q0 61 -12 197t-12 202q0 26 1 49.5t5.5 56t17.5 68.5q6 61 92 77l83 15l3 57
q0 26 -3 51.5t-11 58.5q-14 64 -14 94q0 34 10 74l1 -14q0 -11 -10 -20zM73 766l-15 15l15 -49v34zM456 781l-24 -73l-24 58l-20 -20q-12 -11 -14 -24q24 -11 24 -33q0 -13 -7 -30q-15 -40 -17 -53l-9 9q-3 4 -1 10h-15v-58h15q7 12 25 67q13 41 33 64q9 -5 11 -21l-1 -13
q13 12 20 27q3 9 4 15t1 22l-1 25v28zM107 683l-10 39zM165 674l-10 34zM39 523q4 -27 9 -62t5 -57q3 -20 4 -51.5t1 -37.5l-7 38q-4 32 -7.5 67.5t-3.5 63.5z" />
    <glyph glyph-name="s" unicode="s" horiz-adv-x="700" 
d="M298 799l-13 1q-27 0 -39 -35l-4 -13l14 9q10 -13 10 -30q0 -15 -10.5 -40t-13.5 -42q-9 8 -11 24l1 14v-13l1 -14q0 -14 -15 -20l-9 13l-2 19l2 31q0 14 -4 22.5t-19 17.5l32 32q-20 0 -38 -5.5t-39 -21t-53 -52.5h18l1 -23l2 -19l-3 -27q-1 -8 -9 -20l-33 66
q0 -14 -1.5 -19.5t-12.5 -13.5l38 -9l-1 -11l1 -16q0 -14 -14 -20l-10 9l-14 -9l-8 11q-3 5 -1 12h-9v-168h9q15 -83 83 -138q17 -13 50 -33t89 -50q95 -49 137 -91q5 -9 10 -57q0 -46 46 -46l1 -24q0 -15 -15 -18l-19 20q-10 12 -23 13l-10 -18l-3 -19l1 -23
q0 -10 -3.5 -16.5t-16.5 -12.5l-1 -12l1 -20q0 -18 -14 -24l-33 98l2 -11q0 -10 -9 -22l-16 -23v238h-154q9 -21 9 -45q0 -38 -23 -58q-5 6 -8 19l-2 24v20l1 21l-1 19h-79l9 -182q12 -56 72 -100q44 -32 110 -54q68 -14 131 -14q77 0 143.5 21t117.5 68q25 24 34.5 61
t9.5 85l-1 52v19v16q-2 12 -2 17l1 30q-19 9 -34 26q-19 21 -19 40q0 16 11 27l24 -23l-80 79q8 -8 12.5 -26t20.5 -21l-23 -23l23 -23l-9 -10q-21 0 -35 23l-12 24l-1 -11l2 -27q0 -14 -10 -18q-11 6 -14 32q0 24 -10 33q4 4 10.5 13t11 17t5.5 20q0 19 -33 36
q-91 44 -96 50q4 -5 7 -17l2 -21v-18q0 -14 4 -23t19 -10l1 -19l2 -20q0 -20 -12 -31q0 18 -31 57q-27 35 -29 48q0 10 13 16l-9 -9l-9 9l-1 17q0 12 10 21l-23 18l24 -80q0 -14 -10 -27q-39 23 -44 70l-3 75l8 -12q3 -5 1 -12l-18 24l-56 -103l-14 9v14v18q0 18 14 24
l-24 -18l-14 9l19 64q12 36 37 48q8 5 11 13.5t3 19.5q0 23 21 47t48 24l11 -1q33 -50 33 -122v-17l-1 -11l248 -9v49q0 47 -3 77.5t-11 49.5q-12 36 -42 57q4 -13 -6 -29l-18 -27q-12 12 -12 28l4 26l5 20q0 10 -4 15.5t-16 13.5q13 -13 13 -27q0 -9 -7 -29l-6 -24
q0 -18 23 -32q-5 -12 -20 -12l-13 1l-13 2q-14 9 -14 29q0 13 4 28l11 50q0 17 -13 27t-44 10q5 -9 11 -38l4 -42l-1 -22q-20 18 -30 50l-17 62q-33 12 -50 12q-30 0 -37 -59q0 -55 -34 -75q-12 15 -12 36q0 10 2 20t9 31q12 33 10 49h-23zM377 673h9v88h-9v-88zM489 761
l9 -32l14 14l-14 -14q-9 6 -10 19zM176 752q0 -24 -14 -51q-32 -64 -32 -84q0 21 8 22l15 -5q7 0 9 15l-9 -9q-13 13 -9 23l8 9q3 3 10 1zM592 561h9v102h-9v-102zM634 561h14v70h-14v-70zM489 304v-79q-23 0 -23 25q0 24 -10 31q17 2 24 5q12 6 9 18zM74 94l14 42zM106 80
h14v47h-14v-47zM176 127l24 -103l15 50q5 15 5 32l-2 21q13 -23 13 -47q0 -23 -9 -44q-2 -6 -16 -26q-2 -3 -11 -19q-6 8 -9 17.5t-5 18.5q-5 18 -5 64v36z" />
    <glyph glyph-name="t" unicode="t" horiz-adv-x="447" 
d="M146 800h-61l-3 -24l2 -33l2 -26q0 -21 -6 -33t-25 -18q-19 0 -28 -13q-7 -14 -7 -34l2 -36l2 -27l-3 -23l13 -1l25 1q15 0 26 -9v-228l9 9q2 -12 11.5 -36t11.5 -40q0 -15 -10 -28q-13 0 -22 13l-1 -80l-1 -84q0 -101 11 -167q31 -49 93 -70q45 -15 122 -15l58 1h22h23
q10 2 14 2v133q-4 -22 -13 -39t-30 -21l12 -13l-21 -21q-10 66 -17 134.5t-7 127.5q0 45 -3 144t-3 153q9 14 9 80q0 67 33 67q15 0 40 -13l-1 14v12v25l1 26v14v10q-2 6 -2 8q0 11 -7 24h-13l-9 -90l-23 74l2 16l-12 -2q-12 0 -18.5 20t-12.5 25l-17 -30q-5 3 -10 15l-3 23
v14v8l-9 -8q-5 6 -10 16l-3 19v34l1 -27l2 -20q0 -13 -5 -21q-2 -6 -15 -14h18q6 -1 12 -9q-3 -17 -18 -25l-25 -5q-1 2 -10.5 11t-18.5 16q-31 27 -31 55v-82l-30 39l-13 -9q-12 6 -18 16l-4 27v16l2 20q0 10 -2 12h22zM176 800l9 -4l18 1q8 0 15 -5t10 -22l21 30
q6 1 10 -16l3 7zM344 800h-43l13 -30zM107 739h9v43h-9v-43zM124 369l-17 60zM331 193h13v43h-13v-43z" />
    <glyph glyph-name="u" unicode="u" horiz-adv-x="764" 
d="M344 797h-286l34 -24l-9 -25q-4 -11 -15 -22l-10 14l-6 -113q0 -30 -3 -70t-3 -51q0 -52 6 -90.5t26 -65.5l-10 -9l-10 9l-4 -43q0 -28 20 -44q21 -14 21 -48l-3 -36l-16 22q-10 13 -10 24q0 7 2 11l-10 -57l-12 12q-4 5 -2 12h-9v-33h9q25 -17 25 -40q0 -16 -14 -44
q-11 -26 -13 -35q0 -13 16 -19q-9 12 -9 26q0 18 19 31l10 -31l4 -38q0 -44 -14 -69l-10 14l34 -105q55 -36 90 -49q15 -5 32.5 -8t35.5 -3l37 3q68 12 95 32q26 17 38 49l24 -66h285v979l-13 -2q-10 0 -16 2q-14 0 -14 -14l10 -10q12 -26 12 -57q0 -24 -8 -43.5t-28 -36.5
q-6 33 -11.5 62.5t-14.5 69.5v14l2 15l-23 3q-14 0 -21 -1t-25 -7l-36 -7q-16 0 -28 12l-14 -14l24 -10q3 -12 -4.5 -23.5t-19.5 -23.5q-9 3 -12 5l-12 9v-57l-12 13q-8 11 -8 19q3 9 -2 22l-4 19q0 17 26 17v24h-10l1 -16q0 -11 -10 -17q-5 1 -9.5 9t-4.5 24l-3 -276
l-5 -282l-2 -241l-1 -30v-26q0 -22 -5 -36q-3 -14 -18 -31q-41 61 -59 165q-13 85 -13 201l2 146l2 110q0 21 -1 56t-1 49q0 39 -10 91l-24 -24l-10 14l15 58q6 19 19 32l9 -11q3 -4 5 -12v47zM116 683h9v100h-9v-100zM206 683l-14 81zM239 659h10v91h-10v-91zM591 659
l24 91zM515 707l10 33zM330 536h14v90h-14v-90zM101 79l-9 57z" />
    <glyph glyph-name="v" unicode="v" 
d="M34 796l24 -48q0 -140 31 -307l63 -338q32 -172 32 -303l397 10q0 96 16 207l34 230q17 121 17 201q10 8 17 21q3 8 5 27l-1 22q0 14 -2 22q0 22 15 34l-43 -44l-25 25q14 6 27 30.5t32 36.5l9 -9l18 74q11 42 11 68q0 17 -5 32l10 9l-25 1l-43 -2l-29 -1h-14l-15 2
l-1 -18l1 -23l1 -23q0 -28 -10 -42q-8 9 -11.5 21.5t-3.5 29.5v19l1 20l-1 16l-14 -1l-14 2q-12 0 -15 -10q12 -19 22 -45t10 -50q0 -26 -13 -46l-13 41q-3 15 -21 27q0 -6 1 -9.5t7 -21.5l5 -21q0 -21 -23 -30q0 11 -4.5 28t-12.5 36q-17 40 -17 57q0 13 3.5 22.5
t16.5 20.5h-34q-11 -82 -22 -216l-17 -231q-6 -64 -12.5 -116.5t-16.5 -108.5q-10 75 -16 106q-9 64 -32 102l3 38q0 24 -3 49t-5 41q-8 67 -8 96l3 42q-5 12 -9.5 40.5t-4.5 69.5q0 88 -68 88l-10 -82l-18 31q-4 9 -6 16t-2 18q0 12 2 17l-1 -13l1 -25l-2 -15q0 -6 -12 -14
l-20 67l-18 4q-30 0 -62 -69l-26 -60l-10 9l-4 24q0 17 12 40l26 43zM136 738l14 49zM673 772q-20 0 -28.5 -13t-8.5 -32l2 -33q1 -7 1 -13v-10l19 43l-19 15l-1 13q0 13 10 20l6 -6q6 -6 19 -8v24zM242 714q11 -9 11 -26q0 -15 -6 -27t-15 -15l8 -1l12 11l1 14q0 10 -4 21z
M474 632h10v58h-10v-58zM639 463l19 43zM334 192l14 58zM184 76l-10 14l10 -48v34z" />
    <glyph glyph-name="w" unicode="w" horiz-adv-x="1098" 
d="M65 798v-115q-7 3 -12 9q-3 6 -3 14v25q0 -122 20 -265l41 -301q21 -152 21 -264l-2 -14q0 -47 33 -70q28 -17 81 -17h36q19 3 29 4l109 9q27 0 51 -6l13 106q10 84 30 134q2 10 5.5 34.5t3.5 48.5q0 32 7.5 54t22.5 37q4 -29 9 -60t18.5 -104t21.5 -138t8 -112h323
q24 142 45 327l34 323l36 341l2 -21q0 -20 -12 -56q-4 -12 -8 -25.5t-6 -22.5q-14 26 -14 63t14 62q-13 -20 -19 -58q-12 -97 -14 -101l-39 58q3 -9 -9 -24l-6 6q-7 7 -4 18l-1 -11l1 -22q0 -18 -14 -25q-5 8 -8 20.5t-3 29.5q0 33 11 51q14 -6 14 -24l-14 82h-68l3 -36
l1 -21q0 -16 -1 -23t-7.5 -20t-29.5 -25l-14 10l25 84q0 17 -11 31h-14q-14 -72 -26.5 -155t-22.5 -163q-18 -158 -18 -303l-24 24l8 8q3 4 1 12q-11 0 -22 24q-10 27 -10 54q0 32 13 52h10l-44 404v-39q-21 -16 -29 -16q-6 0 -6 10q0 14 4 27l12 50q0 8 -5 11
q0 -13 -3.5 -20.5t-10.5 -12.5l-10 12v12l-82 9l-9 -159q-10 0 -13 9l-1 20l-1 -9l-9 -10q-12 10 -18.5 28t-6.5 37q0 18 4 37l11 38l8 -12q2 -4 2 -12l1 15q0 14 -11 18q-5 -5 -10 -18l-2 -25v-15q0 -23 -5 -36q-3 -12 -22 -21q-8 4 -10 18l1 30l-24 -34l-10 10l1 15l-1 18
v18q0 18 4 27t20 13h-14q-8 -68 -14.5 -129t-17 -138t-22.5 -144.5t-28 -127.5q0 38 -4 82.5t-13 93.5l-33 199q-17 102 -17 164q-9 -8 -11 -19q0 -7 6.5 -18.5t9.5 -18t4 -11.5q-44 -52 -101 -72q0 13 -21 49q-8 15 -10 27q0 9 7 20l10 -15v58l-20 -24l-12 12q-4 5 -2 12
l-11 2q-13 0 -13 -18l4 -28l10 -47q0 -5 6 -7l12 -1q7 0 6 -16q-3 -17 -7 -21t-15 -6l-17 3q-12 3 -18 0q10 22 10 45q0 28 -9.5 51t-24.5 43zM223 740l15 58zM989 798h-48l9 -43v10v13q0 15 15 20q9 -3 10 -17l-1 -16zM584 789l-14 -34l-10 10v9h-9v-19h9q0 -22 31 -88
l3 -18l14 10l8 -9q4 -3 2 -11l-10 58l-14 -14q-5 6 -8 20l-2 26v20l1 22zM907 755l-34 10q1 -10 3.5 -18.5t7.5 -16.5l8 -14zM676 360l9 48zM305 302l15 58zM329 163h10v82h-10v-82z" />
    <glyph glyph-name="x" unicode="x" horiz-adv-x="729" 
d="M33 800q18 -51 42 -147l39 -172q20 -84 45 -155q-23 -74 -45 -179l-35 -181q-19 -102 -36 -163q-5 9 14 19q20 -12 46 -18t58 -6l43 1l71 4q19 34 30 128t43 138q17 -42 31 -101q30 -147 36 -165h281l-72 290l-17 -56q-9 -32 -27 -50l-24 24l22 98q12 51 12 90
q0 27 -1.5 37t-6.5 27q-3 15 -9.5 31t-16.5 32q23 67 45 154l35 159l36 161h-73l18 -48q6 -16 8 -31q0 -16 -11 -27q-15 14 -15 24q-14 0 -24 5l-14 5q-7 0 -15.5 -7t-23.5 -27l-15 14l3 -13q0 -8 -9 -19l-18 -16q-12 5 -12 15q0 9 14 30l-2 3l-9 -14q-9 11 -23 59
q-11 47 -36 47l-27 -124q-14 -67 -14 -109v-25q0 -13 8 -32q0 -16 -15 -25q-33 20 -51.5 66.5t-18.5 102.5v25l2 15l-1 -16l2 -13q0 -12 -10 -15q-12 7 -19 18.5t-7 25.5l1 14q-3 8 5 15t20 4l2 13q0 14 -12 35l-15 25l3 -23q0 -11 -3 -25.5t-10 -33.5t-10.5 -33t-4.5 -24
l1 -11q-25 6 -25 55l-9 13l-14 -10l-10 10l-10 -10l-14 68l-5 -7q-2 2 -4 4.5t-7 10.5q-6 15 -10 16q-1 -2 -1 -3q-5 -13 -7 -21l-10 9q-3 -3 -3 -12l2 -20l2 -25q0 -23 -7.5 -35.5t-31.5 -23.5l-10 131v-12l1 -17q0 -13 -11 -19zM232 800h-25v-24l10 9q8 -1 11 -13l4 -20
v48zM532 800h-58q5 -13 7 -28v-11q2 -6 17 -19l-1 17q0 11 10 17q8 -3 11 -14l4 -20zM638 742l-14 34l14 -68v34zM149 171l6 -20q5 -13 5 -24v-6l-1 -8l-24 -20zM440 79v73h9v-73h-9zM101 21l14 72zM425 -95l-34 34z" />
    <glyph glyph-name="y" unicode="y" horiz-adv-x="663" 
d="M43 739l-13 60zM73 799q0 -8 13 -51q6 -20 6 -33q0 -24 -19 -39l-22 29l145 -721q0 -35 -38 -46q-10 -3 -22.5 -4t-41.5 -1v-132q61 0 104 1t82 2q31 0 60.5 4.5t75.5 14.5q40 12 73 51q28 34 42 80l5 97q0 39 6.5 68.5t18.5 46.5q10 23 10 96t11 78l-21 -21l-9 13
q24 70 39 151l20 153q13 112 22 163h-21l-1 -16v-14l1 -14l-1 -13q0 -7 -8 -15q-15 11 -15 25l3 24q0 11 -9 23q-13 0 -18 -8l-4 -20l2 -29q0 -15 -10 -24l-12 8q-4 3 -9 1l-1 -12l1 -14q0 -18 -13 -25l-17 42l-4 -20q0 -5 -9 -10q-5 4 -7 6l-2 18v12q-7 -2 -12 -6l-17 81
l-15 -1l-16 1q-9 0 -13.5 -3t-6.5 -6l-42 -581q-9 5 -15 18q-5 15 -5 42l-1 38q-3 15 -22 12q0 86 -3 146.5t-11 110.5q-12 94 -36 151l2 -23q0 -13 -11 -16l-15 10l-4 10l3 22q0 10 -5 18l1 -14q0 -12 -10 -16l-12 9l1 -11q0 -12 -10 -19l-42 51l12 -9q0 -23 -12 -34
l-11 13q-9 11 -6 21q0 34 -19.5 47t-52.5 13zM247 799v-30h17v21q-12 12 -17 9zM480 799l21 -60l9 30h-22q-9 3 -9 16zM438 718v72l-22 -102zM306 434l-21 -94zM111 -97l-9 22l9 -51v29zM145 -126q7 -13 17 -13l2 -21q-1 -16 -11 -17h-21q-9 8 -9 14q1 9 10 20z" />
    <glyph glyph-name="z" unicode="z" horiz-adv-x="566" 
d="M141 796h-91v-197l197 -15q-47 -80 -78 -211l-52 -227l-24 58v-67q-6 -3 -11 1l-8 8q3 -8 -1 -16l-7 -15l4 -4q6 -5 13 -8l-1 -13l1 -19l1 -19q0 -21 -10 -31q-9 -3 -16 1l-9 9l-2 11q0 12 13 28l-4 -3q-4 -4 -5 -8l-2 -15v-13q0 -19 -23 -19v-212l510 14v58l-5 -22
q0 -9 -10 -12q-5 7 -8 15t-3 16q0 9 21 56q10 23 10 38q0 11 -5 25q-7 0 -7 -20v-25q0 -23 -3 -37t-14 -24l-15 115l-9 -101q-12 3 -16.5 9.5t-6.5 12.5t-2 17l1 20v18l-10 -9l-34 33l-15 1l-31 -1l-29 3q-12 3 -21 12q27 87 80 227q17 45 51 139q22 61 32 90q40 124 49 213
l-24 -48q-15 6 -15 24l-9 -15l-24 82l-4 22q0 16 17 25l44 11l15 -34v34l-82 14l-1 -21v-21l1 -20q0 -19 -2.5 -30.5t-11.5 -22.5q-36 0 -36 24q0 7 13 42l7 30q0 11 -4 19v-13l1 -14l-3 -12l-12 -9q-8 6 -10 18l1 20l-1 10h-33l-1 -11l1 -16l-3 -12l-12 -9l-24 48l25 -79
q0 -14 -10 -27l-17 15q-8 8 -8 19l-13 49q-6 27 -26 27q-10 0 -18 -4l2 -12q0 -13 -10 -24l-16 -22l-10 10l-1 16q0 14 11 18l-22 8l-36 6q19 -6 26.5 -15t9.5 -23q0 -16 -18.5 -54.5t-18.5 -57.5l1 -13q-5 6 -8 19l-2 24v25q0 17 -2.5 27.5t-11.5 19.5l1 -22l1 -23l-2 -19
q0 -9 -10 -18l-23 80q0 19 14 36l9 -10v24zM83 748l-9 24l9 -72v48zM108 690h9v82h-9v-82zM266 772q-15 -21 -41 -77l-2 -14l10 9l14 -24q3 -6 19 -9v115zM396 -27q9 4 19 4q25 0 34 -34q5 -18 5 -65v-20q-1 -10 -7 -10q-16 0 -42.5 35.5t-26.5 61.5q0 22 18 28zM339 -152h9
v58h-9v-58z" />
    <glyph glyph-name="nonbreakingspace" unicode="&#xa0;" horiz-adv-x="500" 
 />
  </font>
</defs>
</svg>
