<svg width="13" height="9" viewBox="0 0 13 9" fill="none" xmlns="http://www.w3.org/2000/svg">
<path fill-rule="evenodd" clip-rule="evenodd" d="M0.5 0C0.22386 0 0 0.22386 0 0.5C0 0.77614 0.22386 1 0.5 1H12.5C12.7761 1 13 0.77614 13 0.5C13 0.22386 12.7761 0 12.5 0H0.5ZM0 4.5C0 4.22386 0.22386 4 0.5 4H12.5C12.7761 4 13 4.22386 13 4.5C13 4.77614 12.7761 5 12.5 5H0.5C0.22386 5 0 4.77614 0 4.5ZM0 8.5C0 8.2239 0.22386 8 0.5 8H12.5C12.7761 8 13 8.2239 13 8.5C13 8.7761 12.7761 9 12.5 9H0.5C0.22386 9 0 8.7761 0 8.5Z" fill="white"/>
</svg>
