<svg width="24" height="24" viewBox="0 0 24 24" fill="none" xmlns="http://www.w3.org/2000/svg">
<g clip-path="url(#clip0_1_2)">
<path d="M11.9984 24C5.57589 23.9918 0.295899 18.9328 0.0127699 12.5161H0V11.4832H0.0127699C0.295312 4.9288 5.78884 -0.183774 12.3462 0.00506703C18.9035 0.193908 24.0938 5.61415 23.9987 12.174C23.9036 18.7338 18.5585 24.0013 11.9984 24ZM12.516 22.9152C14.0656 22.6148 15.423 20.9553 16.3026 18.5296C15.057 18.2645 13.7892 18.1173 12.516 18.0902V22.9152ZM7.69648 18.5296C8.57609 20.9553 9.93195 22.611 11.4824 22.9152V18.0902C10.2092 18.117 8.94133 18.2639 7.69572 18.5289L7.69648 18.5296ZM16.7158 20.2086C16.3209 21.0478 15.7987 21.8209 15.1676 22.5006C16.9094 21.9746 18.4929 21.0233 19.7753 19.7323C18.9866 19.3302 18.1587 19.01 17.3047 18.7768C17.1353 19.2646 16.9385 19.7424 16.715 20.2079L16.7158 20.2086ZM4.22382 19.7323C5.50577 21.0233 7.08906 21.9747 8.83074 22.5006C8.1997 21.8211 7.6777 21.0479 7.28333 20.2086C7.06018 19.743 6.86332 19.2652 6.69366 18.7775C5.83968 19.0102 5.01182 19.3299 4.22307 19.7316L4.22382 19.7323ZM17.6232 17.7792C18.6212 18.0522 19.5841 18.4401 20.4926 18.9353C21.9825 17.1161 22.8451 14.8644 22.952 12.5154H18.3758C18.348 14.2948 18.0948 16.0634 17.6224 17.7792H17.6232ZM3.50495 18.9345C4.41358 18.4392 5.37681 18.0515 6.37517 17.7792C5.90385 16.0633 5.65145 14.2946 5.624 12.5154H1.04788C1.15425 14.8638 2.01573 17.1151 3.5042 18.9345H3.50495ZM12.519 17.0565C13.9001 17.0812 15.2757 17.2395 16.6264 17.529C17.0789 15.8954 17.3225 14.211 17.3512 12.5161H12.519V17.0565ZM7.37798 17.529C8.72862 17.2391 10.1042 17.0808 11.4854 17.0565V12.5169H6.65235C6.68041 14.2111 6.92297 15.895 7.37422 17.5283L7.37798 17.529ZM17.6269 6.22093C18.0979 7.93511 18.3503 9.70196 18.3781 11.4795H22.9542C22.847 9.13121 21.985 6.88023 20.4964 5.06105C19.587 5.55817 18.6228 5.94743 17.6232 6.22093H17.6269ZM12.519 6.9436V11.4832H17.3512C17.3223 9.78809 17.0788 8.10347 16.6264 6.46958C15.2745 6.76023 13.8977 6.91898 12.5152 6.9436H12.519ZM6.65235 11.4832H11.4854V6.9436C10.1042 6.91835 8.72863 6.7596 7.37798 6.46958C6.92407 8.10301 6.67899 9.78739 6.64859 11.4825L6.65235 11.4832ZM1.04938 11.4832H5.6255C5.65368 9.70574 5.90606 7.93894 6.37667 6.22468C5.37793 5.95308 4.4142 5.5661 3.50495 5.07157C2.01696 6.88833 1.1545 9.13657 1.04563 11.4825L1.04938 11.4832ZM12.519 5.90992C13.792 5.88231 15.0596 5.73467 16.3049 5.46896C15.4253 3.04328 14.0686 1.38834 12.519 1.0841V5.90992ZM7.69948 5.46896C8.94482 5.73438 10.2124 5.88201 11.4854 5.90992V1.0841C9.9312 1.38759 8.57534 3.04253 7.69572 5.46896H7.69948ZM16.7188 3.79074C16.9411 4.25525 17.1375 4.73176 17.3069 5.21805C18.1612 4.98583 18.9893 4.66639 19.7783 4.26476C18.496 2.97361 16.9125 2.022 15.1706 1.49577C15.8006 2.17658 16.3216 2.95072 16.715 3.79074H16.7188ZM4.22608 4.26776C5.01498 4.66888 5.84281 4.9883 6.69667 5.22106C6.86682 4.7348 7.06368 4.2583 7.28634 3.79374C7.68071 2.95443 8.2027 2.18128 8.83375 1.50178C7.09089 2.02637 5.50607 2.9767 4.22232 4.26701L4.22608 4.26776Z" fill="white"/>
</g>
<defs>
<clipPath id="clip0_1_2">
<rect width="24" height="24" fill="white"/>
</clipPath>
</defs>
</svg>
